<svg xmlns="http://www.w3.org/2000/svg" width="197" height="80" fill="none"><g clip-path="url(#A)" fill="#0d0d0d"><path d="M145.636 34.337c-1.832 0-3.449 1.535-5.497 3.18-1.941 1.645-5.714 5.593-9.271 7.896.97-1.535 3.342-4.935 3.665-6.58s-.862-2.303-2.479-1.316c-1.833 1.097-3.558 6.58-6.037 6.58-.431 0-.755-.219-.755-.768 0-1.645 2.48-4.716 6.792-6.471.646-.219.97-.768.97-1.097 0-.11 0-.877-1.402-.877-4.312 0-10.133 5.045-10.887 8.993-.863.877-2.372 2.084-4.205 2.961 2.156-3.071 3.989-5.593 4.959-8.225 1.078-3.071-.431-3.4-2.156-2.522-1.617.877-2.695 3.29-3.234 4.168-.431.877-.862 2.084-2.264 3.181s-2.91.987-1.832-1.316c.97-1.974 3.018-4.058 4.743-5.045.431-.219.755-.329.755-.987 0-.877-1.078-1.535-2.588-.877-2.048.877-3.018 1.426-4.743 1.426-1.401 0-2.048-.329-2.587-.658-.755-.329-1.294-.219-1.617-.11s-.755.329-1.078.768c-.323.329-.539.877-.539 1.206-.431 2.413-2.479 6.8-4.096 6.8-.539 0-1.078-.11-.971-1.426.216-2.084 2.695-4.826 3.234-5.374s1.617-.877 1.725-1.535c.108-.548-.215-1.097-1.293-1.097-3.234 0-7.654 4.606-8.085 8.774-.539.439-1.078.987-1.833.987-1.509 0-1.94-1.426-1.833-2.523 3.989-3.619 11.535-11.735 11.751-17.547 0-1.426-.647-2.084-1.725-2.084-2.803 0-6.684 4.168-9.163 7.348-3.018 3.948-4.851 8.774-5.498 12.393-2.156 1.974-3.126 2.084-4.096 2.084-1.294 0-1.833-.987-1.725-1.755 3.665-3.4 10.133-11.625 10.241-15.683 0-1.206-.647-1.755-1.833-1.755-2.479 0-6.145 2.742-8.732 6.251-2.587 3.619-4.204 7.787-4.743 11.625-1.94 1.755-3.342 2.084-4.528 2.084-.755 0-1.294-.548-1.401-.768 1.725-.987 5.606-3.509 5.606-7.238 0-1.864-1.186-2.742-2.479-2.742-3.126 0-7.977 3.948-7.977 9.432v.548c-1.401.548-2.372.987-2.156 2.084.216.987 1.294.877 2.803.329.323.658 1.833 1.755 3.881 1.755 2.803 0 4.959-1.316 6.576-2.852.755 1.645 2.48 2.522 4.312 2.522 2.156 0 4.42-1.535 6.144-2.961.216 1.316 1.509 3.29 3.773 3.29 2.048 0 3.557-1.206 4.851-2.523.323 1.316 1.509 2.413 3.018 2.413 5.174 0 8.085-7.458 8.731-10.09.108-.329.432-.439.647-.329.97.329 1.402.548 2.695.329-1.94 1.535-3.665 4.277-3.665 6.251s1.617 2.852 2.911 2.852c1.185 0 2.802-.768 3.88-1.864-.323.548-.646 1.426-1.293 2.084-1.078.329-4.312 1.535-6.468 2.742-1.941 1.206-3.881 3.18-3.881 5.374 0 1.206.97 2.632 3.234 2.632 3.773 0 6.468-2.523 10.025-9.103 3.019-1.316 4.744-2.413 5.929-3.4.539.877 1.51 1.316 2.48 1.316 1.401 0 2.371-.439 3.449-1.316-.215.439-.431.987-.862 1.535-2.156.877-4.635 2.084-5.929 2.851-3.45 2.084-4.204 4.058-4.204 5.593 0 .877.754 2.523 3.126 2.523 5.067 0 8.193-6.361 10.241-10.09 1.509-.768 3.665-2.303 5.821-4.058-.108.219-.108.548-.108.877 0 1.645 1.402 3.071 3.773 3.071 4.636 0 6.037-3.509 6.037-7.238 0-1.206-.215-2.193-.215-2.632 0-1.097.323-1.755 1.401-1.755s1.725-.219 1.725-1.097c.108-.877-.755-1.426-1.941-1.426zm-46.785-6.69c.108 0 .216.11.216.329 0 1.426-3.773 7.458-7.223 10.967 1.94-6.251 6.145-11.296 7.007-11.296zM69.206 42.672c.108-2.632 2.264-4.716 3.018-4.716.323 0 .431.219.431.548 0 .987-1.186 2.961-3.45 4.167zM86.778 29.84c.108 0 .215.11.215.329 0 1.097-2.695 6.142-6.144 9.651 1.833-5.703 4.743-9.98 5.929-9.98zm18.972 25.773a.47.47 0 0 1-.431-.439c0-1.645 3.558-3.51 5.39-4.168-.754 1.206-3.773 4.606-4.959 4.606zm14.122.11c-.215 0-.323-.11-.323-.439 0-1.426 3.234-3.619 5.066-4.277-1.078 1.645-3.773 4.716-4.743 4.716zm19.189-10.309c-.216 0-.539 0-.539-.768 0-.548-.216-1.206-1.186-1.206h-.431c2.048-1.645 3.557-3.4 5.066-4.606-.323 3.729-1.186 6.58-2.91 6.58zm-1.725-11.846c-.108.658-.755.987-.863 1.535 0 .329.216.548.647.548 1.078 0 3.881-1.645 4.205-4.277.107-1.316-.647-2.413-2.049-2.413s-2.695 1.316-2.803 2.522c-.215 1.097.863 1.535.863 2.084zM63.277 51.993c-.862 0-1.294-1.206-1.294-2.522 0-1.426.97-4.716 1.294-6.142.431-1.535.539-3.948-.862-5.374 5.174-2.084 12.828-9.322 13.798-10.858s1.186-3.619-.216-4.606c-1.294-.987-3.557.329-4.851 2.193-3.557 5.264-5.713 7.787-8.193 9.98-1.94 1.645-2.803 1.755-3.773 1.864 0 0 3.557-5.922 4.851-7.677 1.617-2.084-.323-2.851-2.264-1.535-.431.219-3.342 2.413-7.007 4.277-6.468 3.4-7.977 4.935-7.977 6.909 0 .877.647 2.084 1.94 2.084 2.479 0 5.067-4.606 6.252-5.703.431-.439 1.617-1.426 2.048-1.426.108 0 .216.11.216.329 0 .877-1.725 3.4-4.312 6.251-3.773 4.168-6.899 5.813-6.899 8.445 0 1.755 1.294 2.632 2.695 2.632 2.911 0 4.851-3.948 6.037-5.922.431-.768 3.018-5.593 3.557-6.69.539.329.862.987.755 2.193-.323 2.303-2.372 5.154-2.372 8.993 0 3.18 2.911 4.167 4.096 4.167 1.078 0 2.479-.439 2.803-1.535 0-.11-.108-.329-.323-.329zm85.701-18.205c.647 0 .971.439.971.987 0 .658-.432.987-.971.987-.647 0-.97-.439-.97-.987s.323-.987.97-.987zm0 1.755c.431 0 .755-.329.755-.768s-.324-.768-.755-.768-.754.329-.754.768c0 .548.323.768.754.768zm0-1.206c.108 0 .324.11.324.329 0 .11-.108.219-.216.329.108.11.108.219.216.219h.108v.11c0 .11 0 .11-.108.11-.216 0-.216-.219-.324-.439h-.107v.329h-.108c-.108 0-.108 0-.108-.11v-.877h.108.215zm-.107.11v.219h.107c.108 0 .216 0 .216-.11s0-.11-.108-.11h-.215z"/></g><defs><clipPath id="A"><path fill="#fff" transform="translate(46 22)" d="M0 0h104v37H0z"/></clipPath></defs></svg>