<svg xmlns="http://www.w3.org/2000/svg" width="197" height="80" fill="none"><g clip-path="url(#A)" fill="#000"><path d="M46.044 47.528c-.353-.378-.689-.63-1.017-.756a2.73 2.73 0 0 0-.992-.185c-.496 0-.941.084-1.337.261s-.74.42-1.025.723a3.25 3.25 0 0 0-.664 1.084 3.65 3.65 0 0 0-.235 1.328c0 .513.076.983.235 1.412s.378.799.664 1.118a3.12 3.12 0 0 0 1.025.74c.395.177.849.269 1.337.269.387 0 .756-.093 1.126-.277.361-.185.698-.479 1.017-.883l1.395.992c-.429.588-.958 1.025-1.572 1.294-.622.269-1.278.403-1.975.403-.731 0-1.412-.118-2.026-.353a4.58 4.58 0 0 1-1.589-1.009 4.68 4.68 0 0 1-1.042-1.563c-.252-.614-.378-1.286-.378-2.034s.126-1.454.378-2.076a4.74 4.74 0 0 1 1.042-1.597A4.6 4.6 0 0 1 42 45.402c.614-.235 1.286-.353 2.026-.353.647 0 1.244.118 1.799.345s1.067.614 1.538 1.16l-1.32.967v.008zm10.187-2.236h1.462l4.102 9.523h-1.933l-.891-2.177h-4.127l-.857 2.177h-1.9l4.144-9.523zm2.152 5.892l-1.462-3.875-1.496 3.875h2.959zm13.574-3.85a1.52 1.52 0 0 0-.723-.572 2.58 2.58 0 0 0-.95-.185 2.6 2.6 0 0 0-.572.067 1.41 1.41 0 0 0-.496.218 1.04 1.04 0 0 0-.353.387c-.093.16-.135.345-.135.555 0 .319.109.572.336.74a3.51 3.51 0 0 0 .832.445l1.093.361c.395.118.756.277 1.093.487s.614.479.832.824c.227.345.336.79.336 1.362 0 .513-.092.958-.286 1.336a2.81 2.81 0 0 1-.757.95c-.311.252-.689.437-1.109.563a4.61 4.61 0 0 1-1.328.185 5.09 5.09 0 0 1-1.706-.294c-.546-.193-1.017-.529-1.412-.992l1.278-1.235a2.2 2.2 0 0 0 .815.731 2.25 2.25 0 0 0 1.067.261 2.03 2.03 0 0 0 .588-.084c.193-.059.378-.134.538-.244a1.21 1.21 0 0 0 .387-.412c.101-.168.151-.353.151-.572 0-.353-.109-.622-.336-.807s-.504-.345-.832-.479l-1.093-.37c-.395-.118-.757-.277-1.093-.479-.328-.202-.614-.471-.832-.807s-.336-.79-.336-1.353c0-.496.101-.916.303-1.278a2.69 2.69 0 0 1 .79-.891 3.48 3.48 0 0 1 1.126-.529 4.75 4.75 0 0 1 1.294-.177 4.75 4.75 0 0 1 1.462.227 3.34 3.34 0 0 1 1.269.757l-1.236 1.303h-.008zm12.154 0c-.177-.261-.42-.454-.723-.572a2.58 2.58 0 0 0-.95-.185 2.6 2.6 0 0 0-.572.067 1.41 1.41 0 0 0-.496.218 1.04 1.04 0 0 0-.353.387 1.18 1.18 0 0 0-.135.555c0 .319.109.572.336.74a3.51 3.51 0 0 0 .832.445l1.093.361c.395.118.757.277 1.093.487s.613.479.832.824c.227.345.336.79.336 1.362 0 .513-.093.958-.286 1.336a2.8 2.8 0 0 1-.757.95 3.29 3.29 0 0 1-1.109.563 4.61 4.61 0 0 1-1.328.185 5.09 5.09 0 0 1-1.706-.294 3.29 3.29 0 0 1-1.412-.992l1.278-1.235a2.2 2.2 0 0 0 .815.731 2.25 2.25 0 0 0 1.067.261 2.03 2.03 0 0 0 .588-.084c.193-.05.378-.134.538-.244a1.21 1.21 0 0 0 .387-.412c.101-.168.151-.353.151-.572 0-.353-.109-.622-.336-.807a3.28 3.28 0 0 0-.832-.479l-1.093-.37c-.395-.118-.757-.277-1.093-.479-.328-.202-.614-.471-.832-.807-.227-.336-.336-.79-.336-1.353 0-.496.101-.916.303-1.278a2.69 2.69 0 0 1 .79-.891 3.48 3.48 0 0 1 1.126-.529 4.76 4.76 0 0 1 1.294-.177 4.75 4.75 0 0 1 1.463.227 3.34 3.34 0 0 1 1.269.757l-1.236 1.303h-.008zm10.565-2.042h1.462l4.102 9.523h-1.933l-.891-2.177h-4.127l-.857 2.177h-1.9l4.144-9.523zm2.152 5.892l-1.462-3.875-1.496 3.875h2.959zm8.91-5.892h2.244l4.614 7.077h.026v-7.077h1.697v9.523h-2.151l-4.707-7.304h-.025v7.304h-1.698v-9.523zm15.137 0h3.749a5.7 5.7 0 0 1 1.816.286 4.39 4.39 0 0 1 1.546.883 4.34 4.34 0 0 1 1.076 1.488c.269.597.404 1.294.404 2.101s-.152 1.521-.463 2.118-.706 1.093-1.193 1.479a5.18 5.18 0 0 1-1.631.874c-.597.193-1.185.286-1.757.286h-3.547v-9.523.008zm2.959 7.985c.53 0 1.026-.059 1.496-.185.471-.118.883-.311 1.227-.563.353-.252.622-.588.824-.992.202-.412.303-.899.303-1.488s-.093-1.067-.269-1.479a2.51 2.51 0 0 0-.748-1 3.16 3.16 0 0 0-1.127-.563 5.44 5.44 0 0 0-1.429-.185h-1.546v6.455h1.261.008zm11.683-7.985h3.312c.454 0 .899.042 1.328.126a3.23 3.23 0 0 1 1.135.437 2.35 2.35 0 0 1 .79.832c.194.345.294.79.294 1.328 0 .689-.193 1.269-.572 1.731s-.924.748-1.63.849l2.53 4.211h-2.043l-2.202-4.035h-1.236v4.035h-1.697v-9.523l-.009.008zm3.009 4.034l.723-.034a2.4 2.4 0 0 0 .664-.16c.202-.084.362-.218.488-.387.126-.177.185-.42.185-.731 0-.277-.059-.504-.177-.672a1.19 1.19 0 0 0-.454-.387 2.05 2.05 0 0 0-.622-.168l-.664-.042h-1.462v2.58h1.319zm9.38.765c0-.765.126-1.454.379-2.076s.596-1.152 1.042-1.597a4.6 4.6 0 0 1 1.588-1.017c.614-.235 1.286-.353 2.026-.353.748-.008 1.429.101 2.043.328a4.48 4.48 0 0 1 1.597 1 4.63 4.63 0 0 1 1.05 1.589c.252.622.378 1.311.378 2.068s-.126 1.42-.378 2.034a4.54 4.54 0 0 1-1.05 1.572c-.446.437-.984.782-1.597 1.025s-1.303.378-2.043.387c-.731 0-1.412-.118-2.026-.353s-1.143-.572-1.588-1.009-.79-.958-1.042-1.563c-.253-.614-.379-1.286-.379-2.034zm1.774-.109c0 .513.076.983.235 1.412s.378.799.664 1.118c.286.311.631.563 1.026.74a3.27 3.27 0 0 0 1.336.269 3.35 3.35 0 0 0 1.345-.269 3.07 3.07 0 0 0 1.034-.74c.286-.311.512-.689.664-1.118.159-.429.235-.899.235-1.412 0-.479-.076-.916-.235-1.328s-.378-.773-.664-1.084-.631-.555-1.034-.723c-.404-.177-.849-.261-1.345-.261s-.941.084-1.336.261a3.2 3.2 0 0 0-1.026.723 3.26 3.26 0 0 0-.664 1.084c-.159.412-.235.857-.235 1.328zM46.506 28.196c-.353-.378-.689-.63-1.017-.757a2.71 2.71 0 0 0-.992-.185 3.24 3.24 0 0 0-1.336.261 3.19 3.19 0 0 0-1.025.723 3.25 3.25 0 0 0-.664 1.084 3.65 3.65 0 0 0-.235 1.328c0 .513.076.983.235 1.412a3.46 3.46 0 0 0 .664 1.118 3.01 3.01 0 0 0 1.025.74c.395.177.849.269 1.336.269a2.47 2.47 0 0 0 1.126-.277c.369-.185.698-.479 1.017-.883l1.395.992c-.429.588-.958 1.026-1.572 1.294s-1.278.404-1.975.404c-.731 0-1.412-.118-2.026-.353a4.58 4.58 0 0 1-1.589-1.009c-.445-.437-.79-.958-1.042-1.563s-.378-1.286-.378-2.034.126-1.454.378-2.076a4.74 4.74 0 0 1 1.042-1.597 4.6 4.6 0 0 1 1.589-1.017 5.82 5.82 0 0 1 2.026-.345c.647 0 1.244.118 1.799.345s1.068.613 1.538 1.16l-1.32.967zm30.469-2.227h1.698v7.985h4.051v1.53h-5.741v-9.515h-.008zm34.268 4.799c0-.765.126-1.454.378-2.076s.597-1.151 1.043-1.597c.445-.437.975-.782 1.588-1.017s1.286-.353 2.026-.353c.748-.008 1.429.101 2.042.328a4.4 4.4 0 0 1 1.597 1c.446.437.799.967 1.051 1.588s.378 1.311.378 2.068-.126 1.421-.378 2.034a4.53 4.53 0 0 1-1.051 1.572c-.445.437-.983.782-1.597 1.025a5.73 5.73 0 0 1-2.042.387 5.64 5.64 0 0 1-2.026-.353 4.58 4.58 0 0 1-1.588-1.009c-.446-.437-.79-.958-1.043-1.563s-.378-1.286-.378-2.034zm1.774-.109c0 .513.075.983.235 1.412s.378.798.664 1.118a3.12 3.12 0 0 0 1.025.74c.395.177.849.269 1.337.269s.941-.092 1.345-.269a3.07 3.07 0 0 0 1.034-.74 3.26 3.26 0 0 0 .664-1.118 4.03 4.03 0 0 0 .235-1.412c0-.479-.076-.916-.235-1.328a3.39 3.39 0 0 0-.664-1.084c-.285-.311-.631-.555-1.034-.723-.404-.177-.849-.261-1.345-.261s-.942.084-1.337.261a3.19 3.19 0 0 0-1.025.723 3.24 3.24 0 0 0-.664 1.084c-.16.412-.235.857-.235 1.328zm37.739-4.69h6.304v1.53h-4.615v2.337h4.371v1.53h-4.371v2.58h4.858v1.53h-6.547V25.97z"/></g><defs><clipPath id="A"><path fill="#fff" transform="translate(39 25.726)" d="M0 0h119v29.334H0z"/></clipPath></defs></svg>