<svg xmlns="http://www.w3.org/2000/svg" width="197" height="80" fill="none"><g clip-path="url(#A)"><path d="M27.08 40.436c.332.424.504.947.487 1.481.011.36-.054.719-.191 1.053s-.344.636-.607.888-.573.453-.916.586a2.78 2.78 0 0 1-1.076.187c-.684.025-1.351-.211-1.864-.656-.487-.438-.791-1.053-.913-1.847l1.323-.287c.06.5.166.845.316 1.037a1.35 1.35 0 0 0 .517.423c.206.096.433.14.66.127.188.006.376-.027.551-.096a1.37 1.37 0 0 0 .466-.306 1.39 1.39 0 0 0 .308-.47 1.37 1.37 0 0 0 .095-.551c.002-.155-.021-.308-.069-.456a1.18 1.18 0 0 0-.217-.38c-.111-.127-.241-.236-.385-.325-.178-.113-.365-.21-.56-.291l-.836-.343c-1.186-.491-1.78-1.209-1.78-2.152a2.02 2.02 0 0 1 .186-.89c.129-.279.321-.527.56-.724.515-.442 1.182-.675 1.865-.651.999 0 1.779.478 2.34 1.435l-1.06.617c-.132-.263-.327-.49-.568-.662a1.35 1.35 0 0 0-.73-.179c-.332-.014-.657.094-.913.303-.115.089-.208.203-.271.333s-.095.273-.094.417c0 .416.314.75.942 1.004l.865.348c.725.282 1.239.624 1.566 1.026zm14.768-3.268h1.991v7.309h1.307v-7.309h1.988v-1.209h-5.293l.007 1.209zm22.728-1.743l4.138 9.052h-1.433l-.157-.334a2.08 2.08 0 0 0-.495-.671c-.209-.189-.455-.334-.723-.428a4.35 4.35 0 0 0-2.847.022c-.515.187-.938.562-1.179 1.047l-.183.359h-1.409l4.288-9.047zM65.84 41.2l-1.278-2.897-1.347 2.897-.299.665a5.59 5.59 0 0 1 3.227 0l-.303-.665zm23.729.678l-6.321-6.496v9.095h1.307v-5.964l6.321 6.476v-9.031h-1.307v5.919zm18.142-5.919h-1.307v8.518h3.855v-1.209h-2.556l.008-7.309zm17.239 8.518h4.783v-1.209h-3.468v-1.421h3.364v-1.209h-3.372v-3.471h3.468v-1.209h-4.782l.007 8.518zm22.358-5.113l-1.982-3.404h-1.504l2.829 4.843v3.675h1.309v-3.68l2.84-4.843h-1.504l-1.988 3.41zm11.346-.538l.853.346 1.6-3.149-1.122-.43-1.331 3.234zm15.561 1.614c-.325-.402-.84-.744-1.543-1.022l-.865-.346c-.628-.255-.944-.588-.944-1.004a.94.94 0 0 1 .365-.75 1.53 1.53 0 0 1 .796-.298c.288-.023.577.037.833.171a1.83 1.83 0 0 1 .567.662l1.061-.617c-.562-.957-1.342-1.435-2.34-1.435a2.72 2.72 0 0 0-1.858.651c-.24.197-.431.444-.56.724s-.193.584-.187.89c0 .949.593 1.667 1.778 2.152l.84.337a3.57 3.57 0 0 1 .547.291c.144.089.274.199.385.325a1.16 1.16 0 0 1 .219.38 1.44 1.44 0 0 1 .07.456c.006.188-.027.375-.096.551s-.174.335-.308.47a1.5 1.5 0 0 1-.522.313 1.52 1.52 0 0 1-1.195-.081c-.183-.094-.344-.224-.473-.381-.15-.192-.254-.538-.314-1.037l-1.325.28c.121.793.426 1.409.912 1.847a2.69 2.69 0 0 0 1.857.664c.368.009.733-.054 1.076-.187a2.74 2.74 0 0 0 .915-.586c.264-.251.472-.553.611-.887a2.56 2.56 0 0 0 .196-1.054 2.28 2.28 0 0 0-.498-1.481v.004zM181 31.635v16.73a.63.63 0 0 1-.189.449c-.121.119-.286.186-.457.186H15.646a.65.65 0 0 1-.457-.186.63.63 0 0 1-.189-.449v-16.73a.63.63 0 0 1 .19-.448c.121-.119.285-.186.456-.186h164.708c.171 0 .335.067.456.186a.63.63 0 0 1 .19.448zm-.606 0c0-.011-.004-.021-.012-.028s-.017-.012-.028-.013H15.646c-.011 0-.021.005-.029.013s-.012.018-.013.029v16.73c0 .011.004.021.012.029s.018.012.03.012h164.708c.021-.005.025-.008.029-.012.01-.018.011-.024.011-.029v-16.73zm-1.867 1.23c-.015.047-.02.096-.013.145s.025.095.053.136a.79.79 0 0 0 .234.163c.01 0 .023.016.021.031-.08.011-.161.008-.24-.009s-.144-.051-.199-.102c-.054-.057-.089-.128-.103-.204a.49.49 0 0 1 .019-.265.79.79 0 0 1 .23-.251c.095-.066.203-.112.317-.133.017 0 .017.011.017.016-.055.081-.123.152-.183.23-.041.048-.076.099-.106.154a.44.44 0 0 0-.047.09zm1.095-.065c-.003-.07-.023-.138-.06-.197-.025-.06-.072-.108-.132-.136-.043-.012-.089-.012-.133 0s-.088.017-.133.021c-.011 0-.026 0-.022-.014a.47.47 0 0 1 .174-.098c.065-.02.133-.026.2-.017a.31.31 0 0 1 .15.092c.039.043.07.093.091.147a.41.41 0 0 1 .035.221c-.024.098-.078.187-.155.253a1.72 1.72 0 0 1-.147.129c-.002-.03.005-.06.019-.086l.036-.075c.045-.075.071-.159.075-.246l.002.007zm-.73 14.65a.43.43 0 0 1 .164-.102 1.6 1.6 0 0 0 .288-.163.49.49 0 0 0 .148-.152c.049-.1.056-.215.019-.319-.018-.054-.04-.106-.068-.156a.55.55 0 0 1-.078-.135c.049 0 .142.068.182.099a.74.74 0 0 1 .144.147c.057.073.094.157.109.248s.008.182-.021.269a.57.57 0 0 1-.195.239c-.087.058-.181.106-.28.142a1.66 1.66 0 0 1-.253.077.19.19 0 0 1-.082.009c-.027-.003-.054-.012-.077-.027-.02-.023-.03-.052-.03-.082s.01-.059.03-.082v-.011zm-.446-.678c-.019.026-.031.057-.034.09 0 .043.04.061.064.092s-.013.039-.041.038-.051-.013-.073-.029c-.035-.028-.061-.066-.074-.109-.01-.051-.004-.104.016-.152a.59.59 0 0 1 .195-.256c.088-.066.193-.106.303-.117a2.79 2.79 0 0 0-.363.445h.007zm-160.343.52c-.011.016-.042.029-.04.05s.044.014.058 0a.33.33 0 0 0 .088-.086.43.43 0 0 0 .077-.151c.016-.065.009-.133-.02-.194s-.081-.113-.139-.152c-.09-.068-.195-.114-.307-.135-.023-.003-.045-.003-.068 0a.34.34 0 0 0-.144.032c-.03.019-.055.044-.075.074 0 0-.058.066-.026.063s.055-.017.079-.032a.15.15 0 0 1 .097-.011c.003.02.008.027.014.033s.013.011.021.013.015.006.024.006.016-.002.024-.006h.009c.07.037.138.08.201.127.043.024.08.057.11.097.018.033.028.069.03.106s-.005.074-.019.109c.016.013.007.034.007.056zm-.803.231c.021.002.022.004.022.006-.006.014-.011.021-.018.027s-.015.01-.024.012c-.059.022-.124.026-.186.012s-.117-.048-.159-.094-.075-.112-.082-.179c-.009-.043-.009-.088 0-.131 0-.022.016-.059.044-.038s.015.047.022.066a.47.47 0 0 0 .042.093.61.61 0 0 0 .124.149c.046.044.105.071.168.079.016.002.032.001.047-.002zm-.332-14.877a.33.33 0 0 1 .04-.192.34.34 0 0 1 .142-.137c.057-.026.121-.034.182-.022.047 0 .133.077.168.075a.74.74 0 0 0-.294.079c-.094.047-.175.114-.239.196zm1.064.405c.003.099-.02.198-.065.287a.6.6 0 0 1-.198.221c-.059.043-.129.07-.203.078s-.148-.003-.215-.032a.43.43 0 0 1-.192-.226.66.66 0 0 1-.04-.346c0-.038.037-.086.071-.07.011.007.02.016.026.027.031.053.057.108.075.167.024.084.047.188.131.213.039.01.08.007.117-.009a.46.46 0 0 0 .182-.124.45.45 0 0 0 .101-.193.53.53 0 0 0-.012-.21c-.018-.069-.05-.133-.094-.19.133 0 .234.126.283.255a.51.51 0 0 1 .033.152z" fill="#0d0d0d"/></g><defs><clipPath id="A"><path fill="#fff" transform="translate(15 31)" d="M0 0h166v18H0z"/></clipPath></defs></svg>