<svg xmlns="http://www.w3.org/2000/svg" width="197" height="80" fill="none"><g clip-path="url(#A)" fill="#0d0d0d"><path d="M166.115 37.799c-.726 0-1.053.407-1.238 1.017-.421 1.403-.831 2.807-1.684 4.028-.196.281-.396.74-.846.544-.363-.154-.261-.575-.225-.916a25.27 25.27 0 0 1 .693-3.508c.254-1.011-.131-1.358-1.187-1.13a1.33 1.33 0 0 0-.628.338c-.173.167-.295.376-.352.606a10.62 10.62 0 0 0-.704 3.263c0 .954-.617 1.459-1.339 1.888-.509.302-.897.07-.926-.512a4.18 4.18 0 0 1 .084-.849l.573-3.059c.098-.547.167-1.13-.363-1.498s-1.19-.246-1.771.018c-1.089.502-1.779 1.403-2.385 2.365-.138.221-.178.544-.617.617l.486-2.003c.087-.368.32-.821-.087-1.081a1.49 1.49 0 0 0-.642-.152 1.5 1.5 0 0 0-.646.139 1.44 1.44 0 0 0-.514.401c-.138.17-.233.369-.278.58a10.18 10.18 0 0 0-.577 3.052 2.14 2.14 0 0 1-.276.992c-.171.305-.415.566-.711.763-.272.218-.573.449-.944.263s-.268-.533-.254-.838c.062-1.274.432-2.505.614-3.764.098-.677-.207-1-.871-1.003-.414 0-.792.042-1.024-.4-.105-.203-.363-.175-.588-.186a3.57 3.57 0 0 0-2.069.547c-.734.441-1.356 1.035-1.822 1.739a5.49 5.49 0 0 0-.871 2.327 1.87 1.87 0 0 1-.482 1.044c-.267.292-.621.497-1.014.588-.236.049-.519.123-.697-.056s.051-.428.149-.621c.603-1.2.922-2.456.577-3.768-.457-1.782-2.37-2.386-3.851-1.235-.174.133-.279.393-.591.351-.149-.393-.109-.902-.726-1.01a1.45 1.45 0 0 0-.601-.003 1.42 1.42 0 0 0-.545.243 1.36 1.36 0 0 0-.388.443 1.3 1.3 0 0 0-.158.56 11.84 11.84 0 0 0 .065 1.786c.124 1.123-.043 2.105-1.059 2.842-.363.26-.708.681-1.202.414s-.294-.737-.221-1.137l.649-3.445c.207-1.312-.598-1.916-1.909-1.459-.931.364-1.714 1.01-2.232 1.842l-.726 1.074a18.78 18.78 0 0 0 .113-2.08.89.89 0 0 0-.286-.708.94.94 0 0 0-.345-.201.96.96 0 0 0-.4-.041c-1.046-.021-1.753.561-2.41 1.242-.53.551-.846 1.245-1.271 1.867l-.192-.07.457-1.873c.073-.351.305-.754-.047-1.025s-.824-.165-1.238-.046c-.207.062-.395.174-.543.327s-.255.34-.306.544a10.02 10.02 0 0 0-.385 1.431c-.091.603-.544.631-1.002.702s-.537-.295-.642-.624c-.392-1.245-1.089-2.235-2.541-2.438a3.75 3.75 0 0 0-2.106.211 3.6 3.6 0 0 0-1.625 1.311 4.89 4.89 0 0 0-.904 3.157.62.62 0 0 1-.11.468c-.098.136-.248.23-.416.262a10.93 10.93 0 0 1-4.69.603c-1.975-.189-3.339-1.277-3.67-3.077a7.36 7.36 0 0 1-.023-2.982c.196-.986.591-1.924 1.163-2.762.559-.838 1.406-1.459 2.392-1.754 1.935-.582 2.94.221 2.682 2.14 0 .077-.018.154-.029.232-.076.572-.09 1.133.643 1.316a1.36 1.36 0 0 0 .948-.048 1.29 1.29 0 0 0 .667-.653c1.067-1.951-.109-4.529-2.337-5.013a6.64 6.64 0 0 0-2.645-.082c-.878.15-1.714.476-2.455.956-2.791 1.796-3.804 4.48-3.848 7.567-.054 3.726 2.469 6.213 6.338 6.361a13.98 13.98 0 0 0 5.698-.877.89.89 0 0 1 .499-.075c.17.024.329.096.456.208 1.637 1.189 3.55.979 4.9-.498a3.8 3.8 0 0 0 .85-1.491c.174-.589.642-.565 1.088-.526s.363.435.385.723a7.18 7.18 0 0 0 .262 1.691c.048.233.176.443.363.596a1.11 1.11 0 0 0 .667.249 1.08 1.08 0 0 0 .729-.185 1.02 1.02 0 0 0 .415-.608l.472-1.568a9.85 9.85 0 0 1 1.125-2.491c.163-.246.297-.674.671-.554s.16.505.138.768l-.236 2.105a3.34 3.34 0 0 0 .28 1.975c.094.188.246.343.435.443s.407.14.621.115a.99.99 0 0 0 .572-.168.94.94 0 0 0 .361-.46c.145-.351.25-.737.363-1.112a10.57 10.57 0 0 1 1.452-3.189c.156-.221.316-.596.657-.446s.159.509.112.775a16.35 16.35 0 0 0-.41 2.61c0 1.323.639 1.986 2.007 1.979.672 0 .701.196.49.723a12.5 12.5 0 0 0-1.049 4.378c-.032 1.702.49 2.631 1.55 2.807 1.198.214 2.203-.526 2.81-2.08a14.26 14.26 0 0 0 .943-4.014c.084-1.095.215-2.038 1.656-2.105.297 0 .537-.351.9-.13 1.237.775 2.421.495 3.531-.253.403-.27.617-.305 1.002.056.443.41 1.031.643 1.644.65s1.206-.211 1.659-.611a7.26 7.26 0 0 0 .646-.702c1.452 1.61 1.953 1.688 3.782.509.425-.274.476 0 .628.239a1.05 1.05 0 0 0 .459.441c.197.098.419.133.638.103a1.05 1.05 0 0 0 .588-.231c.166-.135.284-.317.337-.52.102-.267.171-.547.251-.821.313-1.186.825-2.314 1.517-3.34.167-.235.319-.663.7-.495.309.137.124.519.077.786-.156.947-.447 1.874-.396 2.845.062 1.193.726 1.789 1.971 1.779a3.52 3.52 0 0 0 2.178-.726c.341-.267.555-.351.907.056.726.888 1.724.909 2.581.105l.875-1.003c.037.349-.025.702-.179 1.02a1.96 1.96 0 0 1-.696.786 14.2 14.2 0 0 0-3.198 3.066 4.15 4.15 0 0 0-.896 2.691 1.84 1.84 0 0 0 .153.74c.101.235.25.447.438.625a1.99 1.99 0 0 0 .654.412 2.04 2.04 0 0 0 .769.134c.379.004.754-.067 1.104-.208s.665-.35.929-.613c.589-.606 1.044-1.322 1.335-2.105 1.053-2.501 1.452-5.147 1.899-7.785l.758-4.533c.113-.737-.101-.933-.863-.919zm-50.236 6.087a1.09 1.09 0 0 1-.401.225 1.14 1.14 0 0 1-.461.044 1.1 1.1 0 0 1-.439-.146 1.08 1.08 0 0 1-.336-.309 2.06 2.06 0 0 1-.428-1.386c.022-1.01.167-1.754.78-2.301a.75.75 0 0 1 .289-.212c.112-.047.235-.067.357-.058.331.07.211.379.244.589a3.18 3.18 0 0 0 .816 1.824c.45.463.225 1.267-.421 1.73zm17.829 3.059a22.31 22.31 0 0 1-.646 4.596c-.076.26-.138.635-.511.593s-.363-.421-.396-.702a4.66 4.66 0 0 1 .149-1.845c.243-1.324.72-2.599 1.408-3.768l-.004 1.126zm3.184-3c-.175.144-.392.351-.646.207s-.124-.368-.127-.565v-1.084c0-.926-.157-1.884.773-2.551.301-.218.584-.495 1.001-.326a.93.93 0 0 1 .431.395.88.88 0 0 1 .099.566 4.05 4.05 0 0 1-.362 1.851 4.19 4.19 0 0 1-1.169 1.507zm10.043-3.673l-.472 2.287a3.77 3.77 0 0 1-.279.81c-.24.481-.537.961-1.205.807s-.592-.702-.61-1.295c.105-1.207.544-2.34 1.695-3.119.236-.161.53-.351.813-.203s.102.477.058.712zm15.009 11.36c-.2.291-.439.702-.882.491s-.363-.649-.254-1.024c.363-1.277 1.31-2.144 2.479-3.157-.323 1.445-.632 2.638-1.343 3.691zM92.566 30.133a4.91 4.91 0 0 0-1.089 1.796c-.629 1.631-1.044 3.332-1.234 5.062a.79.79 0 0 1-.18.529c-.123.15-.297.252-.492.289-2.381.652-3.677 2.228-4.062 4.561-.051.302-.022.653-.308.86-.868.642-1.797 1.161-2.955 1.021-.457-.053-1.06-.109-1.089-.6-.029-.372.592-.326.922-.453 1.452-.544 2.588-1.305 2.758-2.936a2.08 2.08 0 0 0-.39-1.555c-.334-.45-.836-.756-1.399-.855a3.75 3.75 0 0 0-1.652.065 3.67 3.67 0 0 0-1.451.767c-1.172 1.003-1.601 2.305-1.626 3.761 0 .263.051.519-.2.702-.907.702-1.884 1.214-3.103 1.053-.428-.053-.987-.123-1.024-.586-.029-.351.537-.326.846-.439 1.165-.428 2.221-.968 2.653-2.203.624-1.789-.392-3.214-2.279-3.196-1.484.017-2.541.719-3.303 1.912-.153.242-.261.509-.403.761a.93.93 0 0 1-.484.401c-.205.075-.431.077-.637.006-.504-.126-.073-.505-.065-.768s.12-.565.123-.846c0-.565-.105-1.126-.726-1.379a1.56 1.56 0 0 0-.875-.098 1.53 1.53 0 0 0-.784.39c-.726.603-1.162 1.428-.915 2.287.399 1.403-.657 2.105-1.26 3.045a1.05 1.05 0 0 1-.145-.46c-.185-1.403-.138-2.849-.196-4.273 0-.417-.051-.87-.61-.965s-1.089 0-1.361.579c-.203.425-.363.87-.537 1.302l-1.655 3.814a1.44 1.44 0 0 1-.276-.877l-.156-3.733c0-.66-.174-1.119-.984-1.116s-1.212.295-1.238 1.102a15.2 15.2 0 0 0 .083 2.407 2.07 2.07 0 0 1-.122 1.173 2.15 2.15 0 0 1-.746.932c-.356.33-.719.891-1.274.575-.501-.277-.261-.853-.192-1.291l.544-3.07c.149-.954-.04-1.147-1.034-1.2-.189 0-.407.053-.541-.095-.911-.996-1.895-.491-2.77-.039-1.706.884-2.588 2.365-2.904 4.182-.04.253.018.547-.214.726-.976.747-2.029 1.291-3.343 1.028-.363-.067-.791-.175-.817-.523s.479-.291.726-.418l1.256-.537a3.08 3.08 0 0 0 1.083-.866 2.95 2.95 0 0 0 .576-1.239c.363-1.652-.65-2.831-2.396-2.807-2.309 0-4.044 1.993-4.025 4.585.051 2.228 1.419 3.575 3.717 3.666a5.82 5.82 0 0 0 3.267-.782c.239-.14.439-.323.777-.049 1.488 1.221 2.49 1.182 3.898-.158.276-.256.363-.239.592.049.867 1.109 1.891 1.252 3.074.46.285-.195.558-.405.817-.631.221-.189.33-.147.494.088 1.005 1.438 2.298 1.403 3.245-.084.388-.61.679-1.277 1.089-2.08l.258 1.803c.323 1.449 1.593 1.859 2.788.919a4.45 4.45 0 0 0 1.176-1.375c.584-1.081 1.299-1.726 2.708-1.382.461.112.686.165.795.628.112.567.387 1.092.793 1.516a3.2 3.2 0 0 0 1.505.877c1.372.404 2.773.375 3.993-.351.944-.558 1.702-.807 2.519.088a1.05 1.05 0 0 0 .436.196 5.52 5.52 0 0 0 2.362.282 5.47 5.47 0 0 0 2.255-.738c.443-.256.726-.351 1.158.084a2.55 2.55 0 0 0 3.506 0c.534-.505.759-.547 1.071.168.269.614.893.733 1.517.54.704-.214.599-.768.486-1.291l-.363-1.523a2.69 2.69 0 0 1-.073-1.141 2.72 2.72 0 0 1 .407-1.073c1.222-2.021 2.14-4.201 2.726-6.473.298-1.221.476-2.456.138-3.698-.41-1.558-2.004-1.93-3.18-.786zM44.933 41.43c.142-.653.338-1.323 1.016-1.726a.74.74 0 0 1 .9 0c.138.105.235.251.278.416a.74.74 0 0 1-.042.493c-.17.337-.414.634-.716.869a2.68 2.68 0 0 1-1.03.492c-.425.028-.41-.232-.407-.544zm9.749-1.295l-.701 2.996a1.69 1.69 0 0 1-.472.814.8.8 0 0 1-.372.254.83.83 0 0 1-.455.017.8.8 0 0 1-.39-.226c-.104-.11-.174-.248-.199-.396-.363-1.228.686-3.382 1.88-3.915.555-.277.759-.193.708.456zm18.755 1.558c-.109-.582.555-1.793 1.125-2.042s1.089.042 1.089.674c0 .702-1.183 1.712-1.906 1.652-.039 0-.078-.007-.114-.021a.3.3 0 0 1-.097-.061c-.028-.026-.05-.058-.066-.093s-.024-.072-.024-.11h-.007zm7.201-.084c-.08-.575.483-1.659 1.009-1.926.624-.319 1.161 0 1.143.653s-1.118 1.652-1.815 1.624c-.258-.011-.301-.154-.33-.351h-.007zm8.12 2.596c-.69.077-1.016-.351-.995-1.593a3.53 3.53 0 0 1 .448-1.521 3.66 3.66 0 0 1 1.076-1.191c.465-.333.726-.242.726.351l.094 2.484c.025.589-.748 1.403-1.343 1.47h-.007zm4.719-7.806c-.239.846-.606 1.654-1.089 2.396.109-2.298.294-4.561.944-6.778.08-.263.163-.66.494-.635.403.024.363.456.399.747.116 1.477-.254 2.887-.73 4.27h-.018zM39.51 31.406a6.33 6.33 0 0 0-2.388-.291c-.349-.023-.7-.023-1.049 0-1.96.26-3.688.902-4.475 2.842-.831 2.063.073 3.95 2.396 5.028l3.63 1.554c.806.372 1.343.968 1.194 1.919s-.838 1.295-1.641 1.523c-.94.252-1.928.282-2.882.088-1.572-.288-1.916-.712-1.753-2.228.065-.61-.062-1.088-.748-1.273-.313-.094-.652-.065-.944.081a1.22 1.22 0 0 0-.613.698c-.599 1.449-.015 3.301 1.441 3.975 2.61 1.207 5.307 1.235 7.822-.172 2.682-1.498 2.541-4.957-.145-6.41-.82-.442-1.713-.758-2.574-1.109-.726-.316-1.51-.565-2.134-1.084-.268-.197-.477-.46-.604-.762a1.77 1.77 0 0 1-.12-.952 1.8 1.8 0 0 1 .396-.88 1.88 1.88 0 0 1 .803-.564 4.42 4.42 0 0 1 2.134-.351c1.731.161 2.682.53 2.334 2.431a1.02 1.02 0 0 0 0 .312.91.91 0 0 0 .08.381c.054.12.132.229.231.318a.99.99 0 0 0 .343.202 1.02 1.02 0 0 0 .399.053c.726.028 1.165-.382 1.347-1.196.432-2-.461-3.484-2.479-4.133zm4.432-1.266c.563-.158.516-.537.392-.996-.211-.772.047-1.182.831-1.421a5.15 5.15 0 0 1 1.027-.196c.915-.088.987 0 .795.87l-1.089 6.294c-.073.519.069.968.697 1.024s1.002-.253 1.067-.895a47.09 47.09 0 0 1 .817-5.231c.555-2.561-.113-2.07 2.682-2.073.726 0 .86.235.664.888-.646 2.147-.675 4.354-.617 6.561 0 .33.076.639.461.737a.95.95 0 0 0 .479-.021.92.92 0 0 0 .403-.253 1.69 1.69 0 0 0 .403-.838 7.39 7.39 0 0 1 .904-1.989c.094-.144.2-.368.417-.295s.123.309.102.477a14.42 14.42 0 0 0-.232 1.614c-.022 1.035.632 1.502 1.691 1.277a1.99 1.99 0 0 0 .94-.421c.363-.305.584-.263.958.017 1.06.793 2.824.547 3.553-.449.276-.379.497-.87.116-1.203s-.621.211-.864.421c-.726.614-1.249.667-1.887.102.239-.242.581-.263.867-.389.324-.127.622-.307.882-.533a1.82 1.82 0 0 0 .617-1.029c.081-.4.023-.814-.167-1.178-.363-.604-1.216-.838-2.091-.523a2.77 2.77 0 0 0-1.315.932c-.332.431-.521.949-.544 1.486a4.14 4.14 0 0 1-.058.772.8.8 0 0 1-.313.492.86.86 0 0 1-.573.164c-.512-.07-.319-.516-.272-.825l.392-2.298c.062-.652-.363-.944-1.035-.814a2.2 2.2 0 0 0-.98.516 7.07 7.07 0 0 0-1.267 1.656c-.196-.593.091-.881.363-1.168a13.27 13.27 0 0 0 1.731-2.249 4.63 4.63 0 0 0 .73-2.431c-.004-.667-.073-1.368-.824-1.628s-1.365.119-1.815.702a.91.91 0 0 1-.437.366.95.95 0 0 1-.576.041 24.27 24.27 0 0 0-5.637-.035c-.835.062-1.648.285-2.392.656a2.18 2.18 0 0 0-1.042 1.149c-.191.493-.188 1.037.008 1.528.189.442.454.803 1.034.642zm14.432 2.491c.127-.481.25-.993.889-1.052.063-.012.128-.009.19.009s.118.049.165.092.082.096.103.155a.38.38 0 0 1 .018.183c-.029.435-.762 1.053-1.143 1.017-.283-.032-.265-.242-.221-.404zm-4.599-5.975c.084-.182.174-.431.436-.379s.251.309.251.512c0 1.302-.668 2.33-1.492 3.291.064-1.177.337-2.336.806-3.424z"/></g><defs><clipPath id="A"><path fill="#fff" transform="translate(30 25)" d="M0 0h137v29H0z"/></clipPath></defs></svg>