<svg xmlns="http://www.w3.org/2000/svg" width="197" height="80" fill="none"><g clip-path="url(#A)" fill-rule="evenodd" fill="#000"><path d="M60.652 41.434c-.132.447-.437.781-.959.816-.532.038-.948-.148-1.089-.643a2.8 2.8 0 0 1-.117-.954l.684-13.231c-.038-.021-.079-.032-.124-.032l-7.942-.058c-.166-.002-.299.155-.286.339l1.839 27.303c.01.164.132.291.282.291l12.757.094c.148.002.272-.122.286-.284L68.408 27.8c.016-.185-.114-.346-.281-.346l-7.941-.058a.27.27 0 0 0-.186.075l.733 13.04c.02.304.009.622-.078.919v.005h-.002zm60.864-14.4c-5.596 0-8.677 2.553-8.677 7.378V48.33c0 4.825 2.985 7.419 8.677 7.419s8.963-2.673 8.963-7.419V34.413c0-4.707-3.273-7.378-8.963-7.378zm5.831 14.888l-.664 2.558-1.53 5.866a2.01 2.01 0 0 1-.054.178c-.014.338-.172.629-.542.789-.468.208-.922.169-1.263-.23-.21-.245-.387-.532-.509-.828l-6.31-15.446-1.007-2.468a.67.67 0 0 1-.029-.123l-.002-.013v-.008l-.004-.022a.62.62 0 0 0 .075-.054l.776 1.436.003.005.002.005.002.005.004.007v.003l.003.003.004.006 1.005 1.863 2.357 4.403.002.005.005.009.006.009.002.005.008.015 4.805 8.977 3.282-8.904c.008-.021.021-.04.032-.06l.004-.007.006-.01.003-.005a.24.24 0 0 0 .047.008l-.52 2.019.001.004zm-86.982-15.65c-6.331-.024-9.828 2.568-9.848 7.497l-.057 14.215c-.02 4.929 3.35 7.59 9.786 7.615s10.149-2.689 10.168-7.536l.057-14.215c.021-4.808-3.67-7.551-10.107-7.577v.001zm.705 21.774v-.004c-.121.378-.385.661-.835.687-.459.021-.808-.148-.926-.57a2.48 2.48 0 0 1-.083-.815l1.047-14.478v-.012l.002-.021.147-2.015c.001-.036.013-.074.023-.109.003-.013.008-.025.01-.038a1.22 1.22 0 0 0 .053-.009l.035-.007.064 1.603.064 1.603.168 4.485.314 8.916c.008.256-.008.53-.085.784h.001zm117.59-20.613h-8.407V55.35h8.407c5.621 0 8.88-2.275 8.88-6.979V34.413c0-4.667-3.259-6.979-8.88-6.979v-.001zm.808 20.576v.003c-.107.385-.362.674-.811.714-.455.041-.81-.115-.944-.536-.081-.255-.121-.543-.114-.818l.58-16.606c.001-.032.01-.068.02-.104.003-.014.006-.029.01-.043.015-.003.027-.007.041-.012l.023-.007a72.24 72.24 0 0 1 .168 1.931l.099 1.275.224 3.043.76 10.365a2.35 2.35 0 0 1-.056.791v.001zm-10.007 6.95c-.344-1.603-.384-3.319-.384-5.273v-.32c0-4.267-1.383-6.86-4.836-6.86l-2.048.099c-1.739.119-3.462.237-3.462-.343s1.614-.46 3.335-.339l2.175.106c2.198 0 4.836-2.274 4.836-6.94v-.197c0-5.065-3.275-7.458-8.924-7.458v-.002h-8.432c-.158 0-.285.142-.285.316v27.285c0 .175.127.316.285.316h7.764l-.451-8.066c-.02-.304-.009-.621.078-.919.132-.448.436-.781.958-.818.532-.038.948.148 1.089.643a2.8 2.8 0 0 1 .117.954l-.392 7.605a10.9 10.9 0 0 0 .075.361c.031.142.148.239.279.239h7.947c.185 0 .316-.192.274-.391h.002zm-14.315-23.033h-.003a.78.78 0 0 1-.111-.869c.159-.331.401-.508.714-.412a1.68 1.68 0 0 1 .55.281l8.246 6.349.015.012.047.036 1.686 1.3a.37.37 0 0 1 .058.061c.007.008.012.015.019.023-.003.011-.007.023-.009.035l-.009.034-.975-.584h-.003l-1.101-.661-8.66-5.22a1.71 1.71 0 0 1-.464-.384v.001zm-25.664 16.889l-.033-24.251v.003c.001-.175-.125-.316-.283-.316L98 27.45c-.101.023-.146.132-.016.253 1.651 1.509 2.762 4.873 2.762 6.274l.209 21.058c0 .175.128.316.284.316h13.389c.157 0 .305-.186.145-.316-2.437-1.973-2.518-5.589-2.518-5.589 0-.175-.128-.316-.284-.316h-2.204c-.156 0-.284-.142-.284-.316v.001zM77.608 33.969v3.237c0 .175.128.316.284.316h3.218c.156 0 .284.142.284.316v5.588c0 .175-.128.316-.284.316h-3.218c-.156 0-.284.141-.284.316v4.755c0 .175.128.316.284.316h3.218c.156 0 .284.142.284.316v5.588c0 .175-.128.316-.284.316H69.362c-.156 0-.284-.142-.284-.316V27.749c0-.175.128-.316.284-.316h11.747c.156 0 .284.142.284.316v5.588c0 .175-.128.316-.284.316h-3.218c-.156 0-.284.141-.284.316zm14.712.768l-.712 1.335a.89.89 0 0 1-.178.241c-.111.101-.252.144-.404.067s-.237-.202-.195-.363a.93.93 0 0 1 .128-.284l.865-1.281a5.67 5.67 0 0 1-1.439-1.332c-.168.155-.316.337-.437.546a2.31 2.31 0 1 0 4.001 2.31 2.33 2.33 0 0 0 .257-.662c-.665-.082-1.302-.279-1.887-.577h.002zm8.036 20.222c-.344-1.603-.384-3.319-.384-5.272v-.32c0-4.267-1.385-6.859-4.842-6.859l-2.05.099c-1.74.119-3.465.237-3.465-.343s1.616-.46 3.34-.339l2.177.106c2.201 0 4.841-2.274 4.841-6.939v-.199c0-5.065-3.275-7.458-8.924-7.458v-.002h-8.432c-.157 0-.285.141-.285.316v27.285c0 .175.128.316.285.316h7.807l-.495-8.831c-.02-.304-.009-.621.078-.918.132-.449.437-.782.959-.819.532-.038.949.148 1.09.643.091.3.135.633.117.955l-.422 8.193c.032.181.069.36.108.538.031.141.148.239.279.239h7.943c.186 0 .317-.192.275-.391l-.002-.001zM86.825 34.857l7.271-4.197c.17-.099.383.024.383.221v8.396c0 .197-.213.32-.383.221L86.825 35.3c-.17-.098-.17-.344 0-.443z"/></g><defs><clipPath id="A"><path fill="#fff" transform="translate(30.46 24.251)" d="M0 0h137.08v31.499H0z"/></clipPath></defs></svg>