<svg xmlns="http://www.w3.org/2000/svg" width="197" height="80" fill="#000"><path d="M156.228 39.223l3.745-4.555h2.92l-5.558 6.444v4.733h-2.308v-4.733l-5.558-6.444h2.92l3.745 4.555h.094zm-13.4 0h-6.641v-4.555h-2.308v11.178h2.308v-4.667h6.641v4.667h2.308V34.667h-2.308v4.555zm-35.114 3.222h-.048l-7.442-7.778h-2.025v11.178h2.143v-7.8h.047l7.513 7.8h1.955V34.667h-2.143v7.778zm-26.141 3.4h9.938v-1.933h-7.63v-2.733h5.464v-1.956h-5.464v-2.644h7.63v-1.911h-9.938v11.178zm-12.106-2.778h-.047l-3.698-8.4h-2.661l5.417 11.178h1.908l5.417-11.178h-2.661l-3.674 8.4zm-12.152-8.4h-2.308v11.178h2.308V34.667zM41.63 41.711h3.933v1.956c-.542.178-1.531.4-3.109.4-2.826 0-4.357-1.289-4.357-3.8s1.578-3.8 4.357-3.8c2.85 0 4.31.8 5.134 1.422v-2.267c-.895-.667-2.944-1.178-5.134-1.178-3.274 0-6.948 1.222-6.948 5.8s3.674 5.8 6.948 5.8c2.002 0 4.074-.422 5.369-1.178v-5.111h-6.217l.024 1.956zm76.375-1.467c0 2.511 1.555 3.8 4.357 3.8 2.85 0 4.31-.8 5.134-1.422v2.244c-.895.667-2.944 1.178-5.134 1.178-3.273 0-6.947-1.222-6.947-5.8s3.674-5.8 6.947-5.8c2.19 0 4.239.511 5.134 1.178v2.244c-.824-.622-2.284-1.422-5.134-1.422-2.802 0-4.357 1.289-4.357 3.8z"/></svg>