<svg xmlns="http://www.w3.org/2000/svg" width="197" height="80" fill="none"><g clip-path="url(#A)" fill="#0d0d0d"><path d="M43.943 29.536c1.168 1.008 1.752 2.482 1.752 4.343 0 1.823-.584 3.219-1.752 4.266s-2.881 1.551-4.983 1.551h-4.165v6.631H30.98V27.984h7.98c2.141 0 3.815.543 4.983 1.551zm-2.92 6.437c.545-.465.856-1.163.856-2.133s-.311-1.668-.856-2.133-1.44-.698-2.608-.698h-3.542v5.662h3.542c1.168 0 2.063-.194 2.608-.698z"/><path fill-rule="evenodd" d="M84.623 33.452c.934.892 1.401 2.133 1.401 3.723v9.152h-3.815v-8.376c0-.969-.233-1.667-.623-2.133-.428-.426-1.012-.698-1.752-.698-.895 0-1.596.349-2.219 1.008s-.856 1.551-.856 2.714v7.484h-3.815v-8.376c0-.969-.234-1.667-.623-2.133-.428-.426-1.012-.698-1.752-.698-.856 0-1.557.349-2.18.97-.584.62-.934 1.59-.934 2.87v7.368h-3.815V32.444h3.426l.117 2.443c.467-.931 1.09-1.59 1.907-2.055s1.713-.698 2.725-.698a5.55 5.55 0 0 1 2.764.737c.817.465 1.401 1.163 1.752 2.094.428-.931 1.09-1.629 1.946-2.094s1.752-.737 2.803-.737c1.401.039 2.647.465 3.543 1.319z"/><path d="M102.18 43.923l-.312 2.327c-.506.271-1.129.388-1.791.388-1.751 0-2.88-.698-3.192-2.094-.389.698-1.012 1.202-1.907 1.551-.856.349-1.868.504-3.036.504-1.362 0-2.413-.31-3.153-.931-.779-.62-1.129-1.512-1.129-2.637 0-2.288 1.791-3.723 5.45-4.382l3.348-.62v-.659c0-.737-.234-1.319-.623-1.745s-.973-.659-1.713-.659c-.856 0-1.557.194-2.102.543s-.934 1.008-1.09 1.784l-3.036-1.28c.311-1.202.973-2.172 2.024-2.831 1.012-.698 2.375-1.008 4.087-1.008 1.985 0 3.543.427 4.671 1.28 1.09.853 1.635 2.133 1.635 3.8v5.662c0 .349.078.62.273.814s.428.271.778.271c.273 0 .545-.039.818-.078zm-6.774-.504c.662-.388 1.012-.97 1.012-1.629v-1.435l-2.959.659c-.623.155-1.09.349-1.401.582s-.467.582-.467 1.008.156.776.389 1.008c.311.233.662.349 1.168.349.856.039 1.557-.116 2.258-.543zm-38.072 2.908h3.815V32.444h-3.815v13.883zm0-18.343v2.714h3.815v-2.714h-3.815z"/><g fill-rule="evenodd"><path d="M51.495 39.386c0-.737.117-1.318.311-1.823.156-.388.35-.776.623-1.047.584-.62 1.324-.97 2.18-.97.233 0 .428.039.623.078l.428-3.18c-.156 0-.078-.039-.233-.039-2.141 0-3.581 1.008-4.36 2.986l-.156-2.947H47.68v13.883h3.815v-6.942zm55.862 0c0-.737.117-1.318.311-1.823.156-.388.351-.776.623-1.047.584-.62 1.324-.97 2.18-.97.234 0 .428.039.623.078l.428-3.18c-.156 0-.078-.039-.233-.039-2.141 0-3.582 1.008-4.36 2.986l-.156-2.986h-3.231v13.922h3.815v-6.942zm14.637 7.212c-.701 1.9-1.479 3.219-2.374 3.956-.935.776-2.103 1.125-3.582 1.125-1.518 0-2.686-.349-3.542-1.086l.973-2.676c.311.349.623.543.973.698.35.116.818.194 1.363.194.583 0 1.012-.116 1.401-.349.35-.271.662-.659.895-1.319l.273-.582-1.557-3.606-4.244-10.471h4.205l2.608 8.338.74 2.792.856-2.947 2.569-8.183h3.854l-5.411 14.116z"/></g><path d="M128.522 27.984h7.747c2.219 0 3.815.427 4.866 1.28s1.596 2.094 1.596 3.684c0 1.008-.311 1.9-.934 2.637s-1.48 1.202-2.57 1.396v.039c1.246.194 2.258.659 2.92 1.435a4.1 4.1 0 0 1 1.012 2.792c0 1.59-.584 2.831-1.713 3.684-1.129.892-2.841 1.319-4.982 1.319h-8.059l.117-18.265zm7.241 7.717c2.063 0 3.036-.776 3.036-2.327s-1.012-2.327-3.036-2.327h-3.504v4.692h3.504V35.7zm.467 7.717c1.012 0 1.791-.233 2.297-.62s.778-1.008.778-1.784-.272-1.357-.778-1.745-1.285-.62-2.297-.62h-3.971v4.809h3.971v-.039zm28.768-15.434v18.343h-3.387l-.194-2.559c-.39.892-1.013 1.59-1.83 2.094a5.11 5.11 0 0 1-2.764.776c-1.869 0-3.309-.62-4.36-1.9s-1.596-3.025-1.596-5.274c0-2.288.506-4.072 1.596-5.313 1.051-1.28 2.491-1.9 4.36-1.9.973 0 1.869.233 2.608.698.74.427 1.324 1.047 1.713 1.861v-6.825h3.854zm-4.633 14.62c.584-.737.857-1.745.857-3.064v-.31c0-1.319-.312-2.327-.857-3.064-.583-.737-1.362-1.086-2.335-1.086-1.012 0-1.83.349-2.375 1.086-.584.737-.856 1.784-.856 3.18s.311 2.443.856 3.18c.584.737 1.363 1.086 2.375 1.086.973.078 1.752-.31 2.335-1.008zm-15.182 3.723h3.815V32.444h-3.815v13.883zm0-18.343v2.714h3.815v-2.714h-3.815z"/></g><defs><clipPath id="A"><path fill="#fff" transform="translate(31 28)" d="M0 0h134v23.673H0z"/></clipPath></defs></svg>