<svg xmlns="http://www.w3.org/2000/svg" width="197" height="80" fill="#000"><path d="M79.189 39.8l-.876-1.07-3.202-3.935a7.11 7.11 0 0 1-1.556-3.662 7.17 7.17 0 0 1 .954-4.609c1.138-1.932 2.831-3.112 5.034-3.512 2.524-.458 4.732.236 6.592 1.984a6.89 6.89 0 0 1 2.185 4.497c.193 2.021-.398 3.814-1.643 5.403l-.281.352c.13.026.265.024.396.042a1.46 1.46 0 0 1 1.266 1.466c-.019.753-.589 1.377-1.331 1.438l-2.944.219-.818.051c-.737.004-1.376-.601-1.429-1.334l-.265-3.544c-.06-.789.45-1.475 1.207-1.617.843-.159 1.658.477 1.713 1.333l.03.337c.743-.818 1.303-1.704 1.428-2.815.23-2.038-.846-3.972-2.689-4.826-1.726-.8-3.895-.458-5.293.835a4.43 4.43 0 0 0-1.486 3.334c-.01 1.139.376 2.155 1.092 3.038l3.817 4.669 5.319 6.497c.581.711 1.113 1.455 1.46 2.314a6.56 6.56 0 0 1 .49 2.447c.009 1.26-.225 2.459-.812 3.572-1.156 2.193-2.96 3.55-5.407 3.953-2.536.418-4.731-.346-6.544-2.159-1.231-1.231-1.912-2.737-2.071-4.47-.18-1.966.385-3.717 1.607-5.248l3.984-4.886.071-.092zm1.744 2.13l-.061.066-3.63 4.451c-.836 1.034-1.221 2.206-1.015 3.541.17 1.098.618 2.061 1.46 2.801 1.463 1.285 3.146 1.521 4.958.933 1.253-.407 2.087-1.291 2.618-2.479.484-1.084.592-2.188.188-3.322-.236-.662-.625-1.234-1.063-1.773l-2.692-3.292-.763-.927zM62.984 54.746v1.689H60v-19.16h3.001v7.796c.026-.008.041-.008.046-.015.523-.787 1.269-1.282 2.151-1.555 1.784-.551 3.507-.399 5.109.595 1.044.647 1.724 1.606 2.168 2.739.342.874.502 1.785.535 2.721.047 1.335-.144 2.627-.717 3.844-.686 1.456-1.755 2.516-3.296 3.028-1.439.478-2.885.494-4.292-.149a3.86 3.86 0 0 1-1.635-1.41l-.087-.125zm6.963-4.793l-.153-1.203c-.142-.735-.45-1.393-.995-1.923-.623-.606-1.385-.867-2.241-.897-1.397-.049-2.604.669-3.157 1.95a5.06 5.06 0 0 0-.007 4.129 3.22 3.22 0 0 0 3.25 2.014c1.288-.081 2.226-.703 2.803-1.856.348-.694.47-1.44.499-2.215zm53.306.994h-9.451l.178.89c.426 1.436 1.646 2.381 3.187 2.459.879.045 1.706-.128 2.408-.704.453-.371.748-.853.952-1.394l.056-.144 2.602.822-.239.624c-.807 1.781-2.18 2.876-4.079 3.293-1.527.335-3.02.191-4.44-.486-1.603-.765-2.702-2.002-3.255-3.684-.661-2.007-.611-4.005.362-5.907s2.528-3.079 4.651-3.383c1.73-.248 3.374.068 4.809 1.135 1.037.772 1.667 1.828 2.019 3.057.305 1.063.383 2.149.277 3.249l-.013.081-.024.093zm-3.029-2.263c.003-.033.008-.052.006-.069l-.027-.272c-.139-.93-.583-1.657-1.421-2.117-.443-.243-.926-.342-1.426-.386-1.533-.134-2.881.753-3.32 2.199-.063.206-.094.421-.143.645h6.331zm-5.561-18.042h-9.448l.114.71a3.42 3.42 0 0 0 3.029 2.635c.645.063 1.275 0 1.878-.246.853-.348 1.378-1.001 1.696-1.843l.038-.102c.003-.008.01-.014.025-.034l2.58.816-.059.2c-.706 1.928-2.051 3.18-4.04 3.666-2.148.525-4.149.16-5.907-1.227-1.151-.908-1.855-2.116-2.188-3.535-.37-1.582-.331-3.155.286-4.671.835-2.052 2.315-3.427 4.498-3.891 1.897-.404 3.706-.095 5.289 1.101 1.048.791 1.661 1.882 1.997 3.135.271 1.014.344 2.046.246 3.089-.005.062-.02.124-.034.199zm-3.024-2.253l-.029-.307c-.137-.973-.599-1.727-1.49-2.183-.579-.296-1.201-.381-1.843-.353-1.314.056-2.413.884-2.819 2.135-.073.226-.11.463-.166.709h6.347zm14.99 7.873h-.17c-.844 0-1.687-.003-2.531.003-.131.001-.189-.033-.198-.167l-.101-1.348-.009-.07-.464.563a4.31 4.31 0 0 1-2.432 1.316c-1.108.205-2.187.118-3.218-.364-1.921-.9-2.752-3.141-1.868-5.069.381-.833 1.044-1.387 1.861-1.771.609-.286 1.256-.425 1.917-.521l3.2-.49a1.32 1.32 0 0 0 .262-.072.8.8 0 0 0 .569-.812c.012-.816-.406-1.465-1.168-1.755a3.26 3.26 0 0 0-2.34-.034c-.898.33-1.376 1.02-1.545 1.944l-.035.2-2.802-.635c.068-.634.261-1.213.584-1.745.728-1.197 1.811-1.908 3.145-2.261.912-.241 1.838-.251 2.768-.147.675.076 1.327.234 1.941.528 1.251.598 2.015 1.585 2.332 2.927.109.459.144.926.144 1.397l-.001 5.417c-.001.984-.016 1.969.159 2.967zm-3.188-5.922l-.116.009-2.702.406-1.054.218c-.435.13-.793.388-1.012.802-.513.972 0 2.112 1.077 2.396.487.128.978.089 1.464-.002.704-.131 1.311-.439 1.741-1.033.608-.84.63-1.807.602-2.796zm4.09-6.968h2.987v1.682l.078-.1c.667-1.058 1.641-1.666 2.856-1.88.997-.176 1.982-.095 2.92.313 1.204.523 1.932 1.467 2.328 2.692.218.674.299 1.369.299 2.075l.001 7.962v.137h-3.085v-.171-7.566c0-.451-.074-.889-.245-1.308a2.11 2.11 0 0 0-1.37-1.28c-.614-.193-1.238-.221-1.857-.032-.933.285-1.466.957-1.701 1.87-.092.358-.136.737-.137 1.107l-.006 7.196v.186l-.159.007c-.917 0-1.834-.002-2.75.003-.13.001-.169-.031-.169-.165l.004-12.587.006-.141zm-28.736 4.827l-.375-.854c-.519-.94-1.337-1.425-2.395-1.524-.917-.085-1.758.121-2.495.686-.703.539-1.116 1.266-1.302 2.121-.241 1.102-.18 2.184.3 3.22.595 1.284 1.863 2.053 3.277 2 1.499-.056 2.6-.871 3.091-2.287l.036-.094 2.704.98-.158.444c-.86 2.019-2.361 3.262-4.522 3.654-1.754.318-3.416.031-4.922-.951-1.548-1.009-2.483-2.454-2.852-4.253-.342-1.67-.183-3.301.599-4.829.984-1.924 2.563-3.082 4.694-3.446 1.417-.242 2.803-.095 4.105.546 1.482.729 2.447 1.905 2.92 3.487.021.072.015.115-.066.144l-2.604.948c-.016.006-.034.007-.034.007zm-1.244 15.456l.687-.003c.217-.013.439-.029.648-.084.75-.196 1.25-.819 1.284-1.632l.018-2.037c.001-.185.001-.185.185-.185h2.421.177v3.939h2.669v2.727h-2.657l-.008.163.002 5.909a2.28 2.28 0 0 0 .055.501c.134.6.518.926 1.143 1.004.476.06.945.006 1.415-.062l.085-.011v.137l.003 2.271c0 .103-.028.151-.13.184-.692.222-1.402.267-2.121.227-.616-.034-1.207-.174-1.751-.475-.946-.525-1.471-1.351-1.661-2.396-.062-.343-.086-.697-.088-1.046l-.004-6.196v-.197h-2.372v-2.737zm-6.764 2.736h-2.37v-2.728l.183-.008c.345-.018.698.003 1.034-.062a1.67 1.67 0 0 0 1.394-1.62l.028-2.064v-.185l.145-.009 2.476-.003c.126-.001.16.036.16.16l-.003 3.598v.181h2.665v2.733h-2.656l-.008.158.002 5.828a2.82 2.82 0 0 0 .05.543c.12.618.512.963 1.152 1.045.43.055.855.014 1.281-.042l.217-.033v.141l.002 2.271c.001.105-.032.151-.132.183-.688.22-1.394.265-2.108.225-.65-.035-1.27-.187-1.836-.52-.858-.504-1.357-1.268-1.558-2.226a5.36 5.36 0 0 1-.112-1.057l-.005-6.321v-.19zm16.06-9.005h3.053v19.162h-3.053V37.386z"/></svg>