<svg xmlns="http://www.w3.org/2000/svg" width="197" height="80" fill="none"><path d="M79.086 53.619l-.106-.313c-.563-1.392-1.532-2.433-2.829-3.158-2.102-1.176-4.35-1.425-6.674-.89-1.969.453-3.528 1.526-4.582 3.278-.694 1.155-.967 2.425-.992 3.756v2.321c.014 1.17.213 2.301.714 3.369 1.23 2.619 3.831 4.261 6.935 3.924 1.982-.215 3.562-1.184 4.744-2.793.039-.052.087-.099.176-.197v.327l-.004 2.127c-.002.191.039.267.249.263h2.683c.195.002.248-.06.248-.248v-8.581c0-.178-.052-.236-.234-.234h-8.146c-.176 0-.217.062-.215.224v2.659c0 .182.052.234.232.232l3.094-.004h.286c0 .068.006.101 0 .13-.557 2.317-3.069 3.522-5.111 2.52-1.391-.683-2.008-1.886-2.091-3.371-.054-.963-.046-1.934 0-2.899.06-1.267.592-2.311 1.65-3.048 1.027-.714 2.183-.888 3.386-.665 1.408.259 2.537.952 3.174 2.296.064.135.135.122.248.083l1.569-.549 1.603-.559h-.006zm0-37.908l-.122-.35c-.578-1.406-1.57-2.447-2.891-3.164-2.025-1.106-4.183-1.369-6.425-.888-2.095.447-3.738 1.561-4.823 3.437-.648 1.12-.899 2.35-.922 3.628v2.344c.012.749.093 1.491.292 2.216.946 3.439 4.143 5.552 7.66 5.019 1.835-.278 3.299-1.22 4.409-2.708l.155-.195.052.019v.255l-.004 2.079c-.004.215.046.296.277.292h2.611c.213.002.296-.05.296-.282v-8.484c0-.217-.068-.269-.277-.269l-8.049.006c-.085 0-.168.01-.267.015l-.006 2.783c-.004.23.072.284.286.282l3.021-.002c.101 0 .201.015.313.025-.004.066-.002.105-.012.143-.449 2.035-2.621 3.309-4.613 2.71-1.489-.447-2.506-1.795-2.592-3.564V18.16c.06-1.306.619-2.371 1.725-3.106.841-.557 1.777-.752 2.781-.679 1.089.079 2.048.453 2.862 1.187.4.362.694.799.915 1.313l3.35-1.166-.004.002zm27.485 41.761v2.901 4.978c0 .143-.029.286.207.284l5.773-.046c.842-.01 1.66-.182 2.458-.441 3.429-1.12 5.416-4.03 5.526-7.297.05-1.466-.184-2.876-.886-4.173-1.561-2.888-4.098-4.201-7.281-4.34l-5.462-.019c-.223 0-.335.116-.337.348v7.807l.002-.002zm-7.96-27.087v.346l.004 9.355c0 .456.025.919.093 1.369.29 1.899 1.222 3.41 2.843 4.454 1.692 1.091 3.556 1.319 5.494.913 2.996-.627 5.081-3.046 5.15-6.168.074-3.35.016-6.703.022-10.055 0-.184-.056-.232-.234-.23l-3.046.004c-.216 0-.323.11-.323.329v9.523a5.67 5.67 0 0 1-.041.65c-.236 2.031-2.087 3.183-3.974 2.712-1.46-.366-2.387-1.615-2.389-3.178l.004-9.765c0-.205-.044-.276-.265-.275l-3.069.006c-.079 0-.157.006-.269.012v-.002zM85.862 49.326h-.288-2.998c-.215 0-.324.111-.325.333l.002 9.428a9.26 9.26 0 0 0 .062 1.157c.211 1.713.95 3.17 2.323 4.22 2.265 1.735 4.789 1.967 7.359.868 2.452-1.048 3.746-3.048 3.81-5.703.081-3.35.025-6.703.033-10.055 0-.182-.046-.251-.246-.249H92.5c-.23-.004-.277.072-.277.286l.002 9.79a3.52 3.52 0 0 1-.05.623c-.323 1.818-1.934 2.882-3.692 2.572-1.613-.282-2.626-1.549-2.626-3.187v-9.767-.313l.006-.002zm47.321 13.053h-.304-6.163c-.315 0-.317 0-.317-.323v-2.659c0-.331.002-.333.336-.333h5.415c.214 0 .321-.102.321-.308l.006-2.611c.004-.226-.048-.302-.288-.3l-5.464.006c-.324 0-.326 0-.326-.337v-2.611c0-.323 0-.323.317-.323h6.067c.1 0 .201-.01.317-.016v-.269l.006-2.682c.004-.236-.068-.292-.298-.29h-9.718c-.24 0-.31.054-.31.304v15.714c0 .226.048.3.288.3l9.838-.006h.275V62.38l.002-.002zm-40.71-47.707c.006-.104.016-.174.016-.246l.006-2.756c.002-.199-.052-.259-.255-.257h-9.813c-.205 0-.255.062-.253.259v15.76c0 .195.048.265.253.265h9.91c.201 0 .261-.062.259-.263l-.004-2.634c0-.22-.107-.331-.321-.331-2.063 0-4.125-.004-6.189.004-.211 0-.275-.052-.271-.269l.006-2.804c0-.077.01-.155.016-.251h.311l5.464.004c.197 0 .261-.05.259-.255v-2.683c.004-.222-.06-.284-.282-.284l-5.487.01c-.217 0-.29-.054-.288-.282v-2.682c-.004-.24.052-.313.304-.311l6.044.006h.317v.002zM87.845 30.05c-.008.046-.017.077-.017.108l-.004 3.094c0 .159.077.186.205.195.886.056 1.704.317 2.437.822 1.808 1.242 2.599 3.636 1.926 5.831-.712 2.33-2.806 3.721-5.206 3.462-1.932-.209-3.649-1.795-4.073-3.775-.087-.404-.13-.82-.192-1.23-.025-.006-.048-.014-.072-.014-1.135 0-2.272 0-3.408-.006-.157 0-.193.068-.18.207.037.383.044.772.105 1.151.321 2.027 1.255 3.727 2.822 5.052 2.127 1.799 4.597 2.386 7.312 1.876 4.537-.853 7.68-5.21 6.639-10.125-.834-3.936-4.263-6.641-8.295-6.647v-.002zm-24.028.319l.139.248 5.839 9.676c.089.149.139.342.141.516v5.583c0 .238.071.292.298.288h3.069c.224.002.282-.062.281-.282v-5.68a.89.89 0 0 1 .126-.449l5.885-9.705c.031-.052.056-.108.102-.195h-.265c-1.184 0-2.369.006-3.553-.006-.197 0-.298.066-.394.232l-3.59 6.208c-.044.077-.099.151-.17.255l-.657-1.149-3.062-5.342c-.048-.085-.155-.191-.236-.193l-3.957-.008.004.002zm61.824 10.074l.361-.139c2.298-.861 3.673-3.195 3.272-5.57-.408-2.421-2.326-3.972-4.44-4.255-.967-.13-1.959-.077-2.94-.112-.158-.006-.189.07-.189.205v2.853c0 .176.075.219.234.217h1.619c.191.002.388.016.574.06.839.197 1.35.812 1.474 1.756.147 1.12-.735 2.147-1.859 2.16h-1.764c-.207-.004-.282.044-.28.265l.01 2.659c0 .12.04.257.106.356l3.742 5.605c.087.131.178.178.333.176l3.939-.004c.066 0 .134-.01.236-.019l-4.428-6.212zm-25.082 25.186h1.473c.335 0 .329 0 .337-.346.008-.354.008-.71.042-1.06.045-.435.366-.698.666-.971 1.417-1.28 1.47-3.294.416-4.57-.281-.34-.621-.63-.933-.944-.224-.226-.228-.323-.004-.542.213-.209.439-.402.648-.615.923-.934 1.203-2.046.884-3.307-.189-.746-.671-1.309-1.238-1.804-.284-.247-.439-.549-.452-.922l-.029-1.013c0-.147-.037-.218-.203-.218h-3.215c-.17 0-.199.073-.197.218v1.354c-.01.801.249 1.505.77 2.104.269.309.578.582.87.868.259.253.265.398.012.648-.213.209-.439.402-.648.617-1.251 1.286-1.358 3.036-.248 4.392.275.335.614.615.919.925.217.22.217.387-.004.601-.172.168-.356.327-.532.493-.524.499-.965 1.073-1.058 1.799-.089.714-.062 1.445-.072 2.168 0 .042.128.122.197.124l1.596.006.002-.004zm19.926-35.247c-.109-.006-.178-.012-.248-.012-1.079 0-2.16.004-3.239-.004-.165 0-.263.052-.354.188l-1.621 2.375c-.097.137-.089.226.006.358l1.636 2.305c.106.147.116.248.008.398l-1.586 2.282c-.134.186-.12.304.007.48l1.596 2.244c.106.149.108.253.002.404l-1.623 2.344c-.087.126-.092.209 0 .337l1.735 2.412c.107.153.223.197.399.197l3.239-.004c.075 0 .153-.008.263-.013l-.153-.222-1.735-2.383c-.108-.145-.094-.242 0-.379l1.598-2.303c.118-.166.11-.28-.008-.443l-1.609-2.265a.29.29 0 0 1 0-.402l1.625-2.342c.087-.124.091-.209 0-.337l-1.625-2.284a.34.34 0 0 1 .004-.481l1.526-2.205c.048-.07.091-.143.155-.242l.002-.002zM94.235 11.416c-.01.07-.021.108-.021.147l-.004 2.924c0 .186.097.184.23.184l11.892.002c.185 0 .23-.06.228-.236l-.004-2.708c0-.21-.103-.315-.309-.315H94.523h-.288v.002zm4.379 7.162l-.004 2.369c0 .174.027.257.234.255l3.141-.002c.162 0 .224-.041.222-.215v-4.761c0-.172-.058-.217-.222-.217-1.046.006-2.094.01-3.141-.002-.207-.002-.238.077-.236.253l.004 2.321.002-.002zm.017 3.974c-.008.06-.016.091-.016.124l-.004 4.81c0 .184.081.211.234.211h3.118c.183 0 .249-.048.249-.246v-4.688c0-.184-.056-.232-.234-.23l-3.142.004c-.062 0-.126.01-.205.015zm-13.6 11.716c1.042.014 1.864-.776 1.911-1.772a1.87 1.87 0 0 0-1.832-2.025c-1.091-.029-1.953.793-1.967 1.851-.014 1.11.785 1.934 1.888 1.948v-.002zm-1.483 1.549c.015-.969-.696-1.897-1.911-1.907-1.079-.01-1.866.834-1.888 1.907-.015.822.555 1.89 1.888 1.903 1.226.012 1.928-.946 1.911-1.903z" fill="#fff"/><g fill="#000"><path d="M79.086 53.619l-1.603.559-1.569.549c-.11.039-.182.052-.248-.083-.638-1.344-1.766-2.036-3.174-2.296-1.203-.222-2.358-.048-3.386.665-1.058.735-1.592 1.781-1.65 3.048v2.899c.085 1.485.7 2.69 2.091 3.371 2.042 1.002 4.554-.203 5.111-2.52.008-.029 0-.064 0-.13h-.286c-1.031 0-2.062-.004-3.094.004-.18 0-.234-.05-.232-.232v-2.659c0-.162.039-.224.215-.224h8.146c.182 0 .236.058.234.234v8.581c0 .186-.052.249-.248.248a108.99 108.99 0 0 0-2.682 0c-.211.002-.253-.072-.249-.263l.004-2.127v-.327l-.176.197c-1.182 1.609-2.762 2.578-4.744 2.793-3.104.337-5.705-1.305-6.935-3.924-.501-1.068-.7-2.201-.714-3.369v-2.321c.025-1.331.298-2.601.992-3.756 1.054-1.752 2.615-2.826 4.582-3.278 2.325-.536 4.572-.286 6.674.89 1.298.725 2.267 1.766 2.829 3.158.039.095.066.195.106.313h.006zm.002-37.91l-3.35 1.166c-.221-.516-.514-.953-.915-1.313-.812-.735-1.773-1.108-2.862-1.187-1.004-.074-1.94.122-2.781.679-1.106.733-1.665 1.799-1.725 3.106v2.899c.085 1.768 1.102 3.116 2.591 3.564a3.7 3.7 0 0 0 4.613-2.71c.008-.037.006-.077.012-.143l-.313-.025c-1.008 0-2.015-.006-3.021.002-.215.002-.29-.052-.286-.282l.006-2.783.267-.015 8.049-.006c.209 0 .276.052.276.269v8.484c0 .23-.083.284-.296.282-.87-.01-1.741-.012-2.611 0-.23.004-.28-.077-.277-.292l.004-2.079v-.255l-.052-.019-.155.195c-1.11 1.487-2.574 2.429-4.409 2.707-3.518.534-6.715-1.58-7.661-5.019-.199-.725-.28-1.468-.292-2.216v-2.344c.023-1.28.275-2.508.923-3.63 1.087-1.874 2.731-2.988 4.825-3.435 2.242-.482 4.4-.219 6.427.886 1.321.72 2.313 1.758 2.891 3.164.044.108.077.222.122.35zm27.485 41.761v-7.807a.3.3 0 0 1 .337-.348l5.461.019c3.184.139 5.721 1.453 7.282 4.34.702 1.298.934 2.708.886 4.173-.111 3.267-2.097 6.177-5.526 7.297-.798.261-1.617.431-2.458.441l-5.773.046c-.238.002-.207-.139-.207-.284v-4.978-2.901l-.002.002zm3.617-.012v4.638c0 .133-.035.284.189.279l2.484-.06c1.156-.099 2.146-.613 2.85-1.535 1.364-1.787 1.484-3.748.559-5.75-.671-1.452-1.887-2.259-3.469-2.437-.756-.085-1.526-.041-2.292-.05-.319-.004-.321 0-.321.323v4.589.004zM98.611 30.38l.269-.012 3.069-.006c.221-.002.267.07.265.275l-.004 9.765c0 1.563.929 2.812 2.389 3.178 1.885.472 3.738-.681 3.974-2.712a5.64 5.64 0 0 0 .041-.65v-9.523c0-.219.107-.329.323-.329l3.046-.004c.178 0 .234.047.234.23l-.022 10.055c-.067 3.121-2.154 5.541-5.15 6.167-1.938.406-3.802.178-5.494-.913-1.621-1.044-2.553-2.555-2.843-4.454-.07-.451-.093-.913-.093-1.369l-.004-9.355v-.346.002zM85.862 49.322v.313 9.767c0 1.636 1.013 2.905 2.626 3.187 1.758.309 3.369-.756 3.692-2.572a3.54 3.54 0 0 0 .05-.623l-.002-9.79c0-.215.046-.29.276-.286H95.6c.197 0 .246.068.246.249l-.033 10.055c-.064 2.655-1.358 4.655-3.81 5.703-2.572 1.099-5.094.866-7.359-.868-1.373-1.052-2.112-2.507-2.323-4.22-.046-.383-.062-.77-.062-1.157l-.002-9.428c0-.222.108-.333.325-.333h2.998.288l-.006.002zm47.321 13.052v3.255h-.275c-3.28 0-6.56-.002-9.838.006-.24 0-.288-.074-.288-.3V49.622c0-.249.07-.304.309-.304h9.719c.228 0 .3.054.298.29l-.006 2.682v.269l-.317.016h-6.067c-.316 0-.317 0-.317.323v2.611c0 .337 0 .337.326.337l5.464-.006c.24 0 .292.075.288.3l-.006 2.611c0 .204-.107.306-.321.307h-5.415c-.335 0-.336 0-.336.333v2.659c0 .323 0 .323.317.323h6.163.304l-.002.002zm-40.71-47.703h-.317c-2.015 0-4.029.006-6.044-.006-.251 0-.308.072-.304.311v2.682c-.004.228.072.282.288.282l5.487-.01c.222 0 .284.062.282.284v2.682c.002.205-.062.255-.259.255l-5.463-.004h-.311l-.016.251-.006 2.804c-.002.217.06.269.271.269l6.189-.004c.214 0 .321.11.321.331l.004 2.634c.002.199-.06.263-.259.263-3.303-.006-6.606-.006-9.91 0-.205 0-.255-.07-.253-.265V11.67c0-.197.05-.259.253-.259h9.813c.203 0 .257.058.255.257l-.006 2.756c0 .072-.008.141-.015.246v-.002zM87.845 30.05c4.032.006 7.461 2.713 8.295 6.647 1.041 4.914-2.102 9.271-6.639 10.124-2.715.511-5.185-.077-7.312-1.876-1.565-1.325-2.501-3.023-2.822-5.052-.06-.379-.068-.768-.105-1.151-.014-.139.023-.207.18-.207l3.408.006c.023 0 .046.01.072.014.064.412.105.826.192 1.23.424 1.98 2.141 3.566 4.073 3.775 2.402.261 4.495-1.131 5.206-3.462.671-2.197-.118-4.589-1.926-5.831-.735-.505-1.551-.766-2.437-.822-.13-.008-.207-.037-.205-.195l.004-3.094c0-.031.01-.062.017-.108v.002zm-24.028.319l3.957.008c.081 0 .188.108.236.193l3.062 5.342.658 1.149.17-.255 3.59-6.208a.39.39 0 0 1 .395-.232l3.553.006h.265l-.102.195-5.885 9.705a.94.94 0 0 0-.126.449v5.68c0 .22-.056.284-.28.282a135.35 135.35 0 0 0-3.069 0c-.226.002-.3-.05-.298-.288V40.81a1.05 1.05 0 0 0-.141-.516l-5.839-9.676-.139-.248-.004-.002zm61.824 10.074l4.428 6.212-.236.019-3.939.004a.35.35 0 0 1-.333-.176l-3.742-5.605c-.066-.099-.106-.236-.106-.356l-.01-2.659c-.002-.22.073-.269.28-.265h1.764c1.124-.014 2.004-1.041 1.859-2.16-.124-.944-.633-1.559-1.474-1.756-.186-.044-.383-.056-.574-.06a62.41 62.41 0 0 0-1.619 0c-.159 0-.234-.042-.234-.217v-2.853c0-.135.031-.211.189-.205l2.94.112c2.114.284 4.03 1.833 4.44 4.255.401 2.375-.972 4.709-3.272 5.57l-.361.139zm-25.082 25.184c-.532 0-1.064.004-1.596-.006-.07 0-.197-.081-.197-.124l.072-2.168c.091-.727.534-1.3 1.058-1.799l.532-.493c.219-.215.221-.381.004-.602l-.919-.925c-1.11-1.356-1.004-3.106.248-4.392l.648-.617c.253-.249.247-.394-.012-.648l-.87-.868a3.06 3.06 0 0 1-.77-2.104v-1.354c-.002-.145.025-.22.197-.218h3.215c.166 0 .203.072.203.218l.029 1.013a1.24 1.24 0 0 0 .452.922c.567.495 1.05 1.058 1.238 1.805.319 1.261.039 2.375-.884 3.307l-.648.615c-.224.22-.22.315.004.541l.932.944c1.054 1.278 1.002 3.29-.415 4.57-.3.271-.621.536-.666.971-.036.352-.036.706-.042 1.06-.008.346-.002.346-.337.346h-1.473l-.002.004zm19.926-35.244l-.155.241-1.526 2.205c-.126.176-.139.296-.004.482l1.625 2.284c.09.128.087.213 0 .337l-1.625 2.342c-.104.149-.11.251 0 .402l1.609 2.265c.118.162.126.276.008.443l-1.598 2.303a.27.27 0 0 0 0 .379l1.735 2.383.153.222-.263.014c-1.079 0-2.16-.004-3.24.004a.42.42 0 0 1-.398-.197l-1.735-2.412c-.093-.128-.089-.211 0-.337l1.623-2.344c.106-.151.104-.255-.002-.404l-1.596-2.243a.34.34 0 0 1-.007-.48l1.586-2.282c.106-.153.098-.252-.008-.398l-1.636-2.305c-.095-.132-.101-.218-.006-.358l1.621-2.375a.37.37 0 0 1 .353-.188l3.24.004.247.012-.001.002zm-26.25-18.967h.288 11.723c.207 0 .31.105.31.315l.004 2.708c0 .176-.043.236-.228.236l-11.892-.002c-.131 0-.23 0-.23-.184l.004-2.924c0-.039.01-.077.021-.147v-.002zm4.376 7.161l-.004-2.321c0-.176.029-.255.236-.253l3.141.002c.164 0 .222.043.222.217v4.761c0 .174-.06.217-.222.215a182.71 182.71 0 0 0-3.141.002c-.209.002-.236-.079-.234-.255l.004-2.369-.002.002z"/><path d="M98.629 22.552l.205-.015 3.142-.004c.178 0 .234.046.234.23v4.688c0 .197-.064.248-.249.246-1.039-.006-2.079-.004-3.118 0-.153 0-.234-.027-.234-.211l.004-4.81c0-.031.008-.064.016-.124zM85.027 34.266c-1.102-.014-1.901-.839-1.888-1.947.014-1.058.876-1.88 1.967-1.851a1.87 1.87 0 0 1 1.832 2.025c-.048.996-.868 1.785-1.911 1.772v.002zm-1.483 1.549c.017.957-.685 1.915-1.911 1.903-1.332-.014-1.903-1.081-1.888-1.903.021-1.073.808-1.917 1.888-1.907 1.215.01 1.926.938 1.911 1.907z"/></g><path d="M110.188 57.458v-4.589c0-.323 0-.327.321-.323l2.292.05c1.584.178 2.8.984 3.469 2.437.925 2.002.805 3.963-.559 5.75-.704.922-1.694 1.437-2.85 1.536-.824.072-1.656.039-2.484.06-.224.006-.189-.147-.189-.279v-4.638-.004z" fill="#fff"/></svg>