<svg xmlns="http://www.w3.org/2000/svg" width="197" height="80" fill="none"><g clip-path="url(#B)"><mask id="A" maskUnits="userSpaceOnUse" x="58" y="5" width="79" height="69"><path d="M58.955 5.087h77.878v68.806H58.955V5.087z" fill="#fff"/></mask><g mask="url(#A)"><path fill-rule="evenodd" d="M115.186 15.001H80.814c-2.786 0-3.814 1.034-3.814 3.836v33.814l.041.885c.063.612.075 1.204.641 1.879.055.066.633.498.633.498l.873.408 16.925 7.129c.879.405 1.246.563 1.884.55h0 .005c.638.013 1.005-.145 1.884-.55l16.925-7.129c.35-.142.562-.255.873-.408l.633-.498c.566-.675.578-1.268.641-1.879.028-.273.041-.567.041-.885V18.837c0-2.802-1.028-3.836-3.814-3.836z" fill="#0d0d0d"/><path d="M112.884 48.996l-.008.078-.008.086-.015.078-.023.078-.015.07-.024.078-.031.07-.031.063-.03.07-.039.062-.039.062-.046.062-.039.062-.046.054-.054.055-.046.047-.062.055-.054.047-.062.047-.062.039-.062.047-.069.039-.07.031-.069.039-.078.031-.077.031-.077.023-.077.024-.07.023-.077.016-.069.016-.07.015-.077.016-.077.008-.07.008-.077.008-.085.008-.077.008h-.077-.085-.086-.077l-.077-.008h-.085l-.077-.008-.077-.008-.085-.008-.077-.016-.078-.008-.077-.015-.077-.016-.077-.016-.078-.016-.077-.023-.07-.016-.077-.023-.077-.023-.07-.031-.077-.023-.069-.023-.077-.031-.07-.031-.069-.031-.07-.038-.07-.031-.069-.039-.062-.039-.069-.039-.062-.039-.062-.039-.062-.047-.061-.047-.062-.047-.062-.047-.054-.047-.062-.055.047-.062.054-.055.046-.062.054-.062.047-.055.046-.062.054-.062.046-.055.054-.062.046-.055.055-.062.046-.062.046-.055.054-.062.047-.062.054-.055.046-.062.062.047.069.047.062.047.07.047.062.039.069.047.062.039.069.031.062.039.069.031.07.031.07.031.069.023.07.031.077.023.077.023.069.023.078.016.077.015.077.016.085.008.078.016h.077l.085.008h.077.092l.085-.008.078-.016.069-.016.07-.016.062-.023.053-.031.063-.047.046-.055.031-.062.023-.07.008-.078v-.016l-.008-.094-.031-.078-.039-.055-.054-.047-.062-.047-.061-.031-.07-.031-.077-.031-.093-.039-.054-.016-.061-.016-.07-.023-.07-.016-.077-.023-.077-.016-.085-.023-.077-.016-.085-.023-.077-.016-.078-.023-.077-.016-.077-.023-.07-.023-.077-.016-.069-.023-.07-.023-.07-.024-.085-.031-.077-.031-.077-.031-.077-.031-.07-.039-.077-.039-.062-.039-.069-.039-.062-.047-.062-.039-.054-.047-.054-.055-.054-.055-.046-.055-.046-.054-.039-.055-.039-.062-.038-.07-.032-.054-.023-.062-.023-.07-.023-.062-.015-.078-.016-.07-.008-.078-.007-.078-.008-.086v-.086-.016-.078l.008-.078.007-.07.008-.078.016-.07.015-.07.023-.07.016-.07.03-.07.032-.07.031-.07.038-.07.039-.07.046-.062.046-.062.054-.062.054-.055.054-.062.062-.055.054-.039.062-.047.062-.047.062-.039.069-.039.07-.031.069-.039.07-.031.077-.023.077-.031.07-.023.062-.016.069-.015.07-.016.077-.016.069-.016.077-.008.078-.008.077-.008.077-.008h.077.086.085.084l.085.008.085.008h.077l.086.008.077.016.085.008.077.016.07.016.077.015.077.016.069.016.078.023.069.023.069.016.078.031.069.023.07.031.069.031.078.031.069.039.062.031.069.039.07.039.061.039.07.047.062.039.062.047.062.047.061.047-.046.063-.039.062-.046.062-.046.063-.046.07-.039.062-.047.063-.046.062-.039.062-.046.063-.046.062-.039.062-.046.07-.047.062-.046.062-.039.062-.046.062-.062-.047-.069-.039-.062-.039-.062-.047-.069-.031-.062-.039-.07-.031-.061-.031-.07-.031-.062-.031-.069-.023-.062-.031-.085-.023-.077-.023-.077-.023-.078-.016-.077-.016-.077-.016-.077-.008-.078-.008-.069-.008h-.077-.093l-.085.016-.077.016-.07.016-.061.031-.055.031-.069.062-.047.07-.03.07-.008.078v.016l.008.101.038.086.031.047.054.055.07.039.062.039.077.031.085.031.093.031.061.016.062.023.07.015.069.023.077.016.086.023.084.023.085.024.085.016.077.023.085.023.078.016.077.023.077.023.069.023.078.023.069.023.07.023.085.031.077.039.077.031.077.039.07.039.07.039.061.039.062.047.062.039.061.055.063.054.053.063.055.055.046.062.046.07.039.062.038.07.031.062.024.07.023.07.015.07.016.078.015.078.008.078.008.086v.086.016.086l-.008.086zm-5.417 1.56h-.077-.077-.077-.077-.078-.077-.077-.077-.086-.077-.077-.077-.078-.077-.077-.077-.078-.077-.077-.077-.077-.078-.077-.077-.077-.078-.077-.077-.085-.077-.077-.077-.078-.077-.077-.077-.078-.077-.077-.077-.078-.077-.077-.077-.077-.078-.077-.085-.077-.077-.078-.077-.077-.077-.078-.077-.077v-.078-.078-.078-.078-.078-.078-.078-.078-.078-.078-.078-.078-.078-.078-.078-.078-.078-.078-.07-.078-.078-.078-.078-.078-.078-.078-.078-.078-.078-.078-.078-.078-.078-.078-.078-.078-.078-.078-.078-.078-.078-.078-.078-.078-.078-.078-.078-.078-.078-.078-.078-.078-.078-.078-.07-.078-.078-.078-.078-.078-.078-.078-.078-.078-.078-.078-.078-.078-.078-.078-.078-.078-.078h.077.077.078.077.077.077.078.077.077.077.078.077.077.077.07.077.077.077.078.077.077.077.078.077.077.077.078.077.077.077.078.077.077.077.077.078.077.077.077.078.077.077.077.07.077.077.077.078.077.077.077.078.077.077.077.078.077.077v.078.07.078.078.078.07.078.078.07.078.078.07.078.078.078.07.078h-.077-.077-.078-.077-.077-.077-.07-.077-.077-.078-.077-.077-.077-.077-.078-.077-.077-.077-.078-.069-.077-.078-.077-.077-.077-.077-.078-.077-.077-.077-.078-.077-.069-.078-.077-.077-.077-.078-.077v.078.078.078.078.078.07.078.078.078.078.078.078h.077.078.077.077.077.078.077.077.07.077.077.077.078.077.077.077.077.078.077.077.077.077.078.077.077.077.07.077.077.078.077.077.077.078.077v.078.07.078.078.07.078.078.07.078.078.078.07.078.078.07.078h-.077-.078-.077-.077-.077-.078-.077-.077-.07-.077-.077-.077-.078-.077-.077-.077-.077-.078-.077-.077-.077-.077-.078-.077-.077-.077-.07-.077-.077-.078-.077-.077-.077-.078-.077v.078.086.078.078.086.078.078.086.078.078.086.078h.077.078.077.077.077.078.077.077.077.085.077.077.078.077.077.077.078.077.077.077.077.078.077.077.077.078.077.077.077.086.077.077.077.078.077.077.077.077.078v.078.07.078.078.078.07.078.078.07.078.078.07.078.078.078.07.078h-.078zm-5.643 0h-.077-.077-.085-.077-.077-.077-.078-.077-.085-.077-.077-.078-.077-.077-.085-.078-.077-.077v-.078-.078-.078-.078-.078-.078-.078-.078-.078-.078-.078-.078-.078-.078-.078-.078-.079-.078-.078-.078-.078-.078-.078-.078-.078-.078-.078-.078-.078-.078-.078-.078-.078-.078-.078-.078-.078-.078-.078-.078-.078-.078-.078l-.039.062-.046.071-.039.062-.046.062-.038.07-.047.062-.038.062-.039.071-.046.062-.039.062-.047.063-.038.071-.047.062-.038.062-.039.07-.046.063-.038.062-.046.07-.038.062-.046.062-.038.071-.039.063-.046.062-.038.07-.047.063-.038.062-.047.062-.039.07-.038.063-.047.062-.038.07-.047.062-.039.062-.046.071-.039.062h-.031l-.046-.07-.039-.063-.046-.07-.039-.062-.046-.07-.039-.063-.046-.07-.039-.062-.047-.07-.038-.062-.047-.071-.038-.062-.047-.07-.039-.062-.046-.071-.039-.062-.046-.07-.046-.062-.039-.071-.046-.062-.039-.07-.046-.062-.039-.071-.046-.062-.039-.07-.047-.062-.038-.07-.047-.063-.038-.07-.047-.062-.039-.07-.046-.062-.039-.071-.046-.062v.078.078.078.078.078.078.078.078.078.078.07.078.078.078.078.078.078.078.078.078.078.078.078.078.078.078.078.078.078.078.078.078.07.078.078.078.078.078.078.078.078.078.078h-.077-.078-.077-.077-.077-.078-.077-.077-.077-.078-.077-.077-.077-.078-.077-.077-.077-.078-.077v-.078-.078-.078-.078-.078-.078-.078-.078-.078-.078-.078-.078-.078-.078-.078-.078-.078-.078-.07-.078-.078-.078-.078-.078-.078-.078-.078-.078-.078-.078-.078-.078-.078-.078-.078-.078-.078-.078-.078-.078-.078-.078-.078-.078-.078-.078-.078-.078-.078-.078-.078-.078-.078-.078-.07-.078-.078-.078-.078-.078-.078-.078-.078-.078-.078-.078-.078-.078-.078-.078-.078-.078-.078h.077.078.07.077.077.078.069.077.078.077.069.077.078.077.069.077.078.077.069.077.078l.038.063.039.07.046.062.039.07.039.062.038.07.039.062.046.07.039.062.039.062.038.07.039.063.046.07.039.063.039.07.038.062.046.062.039.07.038.062.039.07.038.062.047.07.039.063.038.07.039.062.038.062.046.07.039.063.038.07.039.062.038.07.047.062.039.07.038.063.039-.062.039-.07.046-.062.039-.07.038-.062.039-.07.046-.062.039-.07.039-.062.038-.062.046-.07.038-.062.039-.07.039-.062.046-.07.039-.062.039-.07.038-.062.039-.062.046-.07.039-.062.039-.07.038-.062.046-.07.038-.062.039-.062.039-.07.046-.062.039-.07.038-.062.039-.07.046-.062.039-.07.039-.062h.077.077.07.077.077.077.07.077.077.077.07.077.077.077.07.077.077.078.069.077.078v.078.078.078.078.078.078.078.078.078.078.078.078.078.078.078.078.078.078.07.078.078.078.078.078.078.078.078.078.078.078.078.078.078.078.078.078.078.078.078.078.078.078.078.078.078.078.078.078.078.078.078.078.078.078.07.078.078.078.078.078.078.078.078.078.078.078.078.078.078.078.078.078.078h-.078zm-8.961-2.339l-.023-.071-.031-.078-.031-.07-.023-.071-.031-.07-.031-.078-.023-.071-.031-.07-.031-.07-.023-.071-.031-.078-.023-.07-.031-.071-.031-.07-.023-.07-.031-.078-.031-.07-.023-.07-.031-.071-.031-.078-.023-.071-.031-.07-.031.07-.023.071-.031.078-.031.071-.023.07-.031.07-.031.078-.031.07-.023.07-.031.071-.031.07-.023.078-.031.071-.031.07-.023.07-.031.071-.031.078-.031.07-.023.071-.031.07-.031.078-.023.071-.031.07h.077.077.077.078.077.077.077.078.069.077.078.077.077.077.077.078.077l-.031-.07zm2.425 2.339h-.078-.069-.077-.078-.077-.077-.069-.078-.077-.077-.077-.078-.069-.077-.077-.078-.077-.069-.077-.078l-.031-.07-.023-.07-.031-.07-.031-.078-.023-.07-.031-.07-.031-.07-.023-.07-.031-.07-.031-.07-.023-.07-.031-.078-.031-.07-.023-.07-.031-.07h-.077-.077-.077-.077-.07-.077-.077-.078-.077-.077-.077-.077-.078-.077-.069-.078-.077-.077-.077-.078-.077-.077-.077-.077-.07-.077-.077-.078-.077l-.031.07-.023.07-.031.07-.031.078-.023.07-.031.07-.031.07-.023.07-.031.07-.031.07-.023.07-.031.078-.031.07-.023.07-.031.07h-.077-.077-.077-.078-.077-.085-.077-.077-.078-.077-.077-.077-.078-.077-.077-.085-.078-.077-.077-.077l.031-.07.031-.07.031-.07.031-.078.023-.07.031-.07.031-.07.031-.07.031-.07.031-.078.031-.07.031-.07.023-.07.031-.07.031-.07.031-.078.031-.07.031-.07.031-.07.031-.07.023-.07.031-.078.031-.07.031-.07.031-.07.031-.07.031-.07.031-.078.023-.07.031-.07.031-.07.031-.07.031-.07.031-.078.031-.07.031-.07.023-.07.031-.07.031-.07.031-.078.031-.07.031-.07.031-.07.031-.07.023-.07.031-.07.031-.078.031-.07.031-.07.031-.07.031-.07.031-.07.023-.078.031-.07.031-.07.031-.07.031-.07.031-.07.031-.078.031-.07.023-.07.031-.07.031-.07.031-.07.031-.078.031-.07.031-.07.031-.07.023-.07.031-.07.031-.078.031-.07.03-.07.031-.07.031-.07.031-.07.023-.078.031-.07.031-.07.031-.07h.077.07.077.077.078.069.077.077.078.069.077.077.078.069.077.077.078.069.077l.031.07.031.07.031.07.031.078.023.07.031.07.031.07.031.07.031.07.031.078.031.07.031.07.023.07.031.07.031.07.031.078.031.07.031.07.031.07.03.07.023.07.031.078.031.07.031.07.031.07.031.07.03.07.031.078.023.07.031.07.031.07.031.07.031.07.031.078.031.07.031.07.023.07.031.07.031.07.031.07.031.078.031.07.031.07.03.07.023.07.031.07.031.078.031.07.031.07.031.07.031.07.031.07.023.078.031.07.031.07.031.07.031.07.031.07.031.078.031.07.023.07.031.07.031.07.03.07.031.078.031.07.031.07.031.07.023.07.031.07.031.078.031.07.031.07.031.07.031.07.031.07.023.078.03.07.031.07.031.07h-.077zm-6.766-.725l-.062.047-.054.039-.062.047-.062.039-.062.047-.062.039-.062.039-.07.039-.069.039-.069.039-.07.031-.069.039-.077.031-.069.031-.078.031-.069.031-.07.023-.07.023-.069.023-.077.023-.069.023-.078.016-.069.016-.077.016-.078.016-.077.008-.085.008-.077.008-.085.008-.078.008-.085.008h-.085-.085-.085-.078l-.077-.008-.085-.008-.077-.008-.077-.008-.078-.008-.077-.016-.077-.016-.069-.015-.078-.016-.069-.023-.077-.016-.07-.024-.069-.031-.069-.023-.077-.031-.07-.031-.069-.031-.069-.031-.07-.039-.061-.039-.069-.039-.062-.039-.062-.039-.062-.047-.062-.047-.062-.047-.054-.047-.054-.047-.054-.055-.054-.047-.054-.055-.054-.055-.047-.054-.046-.062-.046-.055-.039-.062-.046-.062-.039-.062-.038-.062-.039-.07-.039-.062-.031-.07-.031-.07-.031-.07-.031-.07-.023-.062-.031-.07-.016-.07-.023-.07-.015-.078-.023-.07-.016-.078-.008-.07-.016-.078-.008-.07-.008-.078-.007-.078-.008-.078v-.086-.078-.016-.078l.008-.086v-.078l.007-.078.008-.086.015-.078.008-.078.016-.07.023-.078.016-.078.023-.07.023-.078.023-.07.031-.078.031-.07.031-.07.031-.07.031-.07.039-.07.039-.062.038-.062.039-.062.039-.062.046-.062.046-.062.046-.062.047-.055.054-.055.047-.055.054-.055.054-.055.054-.047.062-.055.054-.047.062-.047.062-.039.062-.047.062-.039.061-.039.069-.039.07-.039.069-.039.069-.031.07-.031.077-.039.062-.023.077-.023.07-.031.069-.016.069-.023.078-.015.069-.023.077-.016.077-.008.078-.016.077-.008.077-.008.077-.008.078-.008h.085.077.085.085l.085.008.085.008h.077l.077.008.085.016.07.008.077.016.077.016.07.016.069.015.07.016.07.023.069.016.062.023.07.023.069.031.069.031.07.031.069.039.069.031.062.039.069.039.062.039.07.039.062.047.062.039.062.047.062.047.062.054.062.047-.046.063-.054.055-.047.062-.054.062-.047.063-.046.054-.054.062-.046.062-.046.055-.054.062-.047.062-.054.062-.047.055-.046.062-.054.062-.046.062-.054.055-.046.062-.062-.047-.062-.055-.062-.039-.062-.047-.062-.039-.062-.039-.062-.039-.069-.039-.062-.031-.062-.031-.062-.023-.069-.023-.069-.023-.07-.016-.077-.016-.077-.016-.077-.008-.085-.008-.085-.008h-.085-.077l-.077.008-.07.008-.077.015-.069.016-.07.023-.069.023-.069.031-.069.031-.062.039-.062.039-.062.039-.054.047-.054.047-.054.047-.047.055-.054.055-.047.062-.038.055-.039.062-.038.07-.039.062-.031.07-.023.07-.031.07-.023.078-.016.078-.016.07-.016.086-.008.078-.007.078v.086.016.078l.007.078.008.07.008.078.016.07.016.07.016.07.023.07.023.062.031.078.031.07.038.07.039.062.039.062.046.063.046.055.054.055.047.054.054.047.062.047.062.047.061.039.062.039.07.031.069.031.07.031.077.023.077.023.078.016.077.015.077.008.085.008h.085.093l.085-.008.085-.008.077-.008.077-.016.078-.015.077-.023.069-.016.069-.031.062-.031.069-.031.054-.031.062-.039v-.078-.078-.078-.078-.086-.078-.078-.078-.078h-.077-.07-.077-.077-.077-.07-.077-.077-.077-.07-.077-.077-.077-.07-.077v-.078-.07-.078-.078-.078-.07-.078-.078-.078-.07-.078-.078-.078-.07-.078h.077.078.077.077.077.077.078.077.077.077.078.077.077.077.078.077.077.077.078.077.077.077.078.077.077.077.078.077.077.077.078.077.077v.078.078.078.07.078.078.078.078.078.07.078.078.078.078.078.078.07.078.078.078.078.078.078.07.078.078.078.078.078.07.078.078.078l-.054.047zm-2.483-17.798h3.347V29.43h-3.347v-5.314h3.481v-2.603h-6.323V40.3h6.376v-2.603h-3.534v-5.663zm23.975.564v4.241c0 .752-.345 1.1-1.062 1.1h-.532c-.744 0-1.089-.349-1.089-1.1V24.975c0-.751.345-1.1 1.089-1.1h.478c.718 0 1.063.349 1.063 1.1v3.677h2.789v-3.838c0-2.335-1.115-3.462-3.426-3.462h-1.382c-2.311 0-3.454 1.154-3.454 3.489v12.131c0 2.335 1.143 3.489 3.454 3.489h1.408c2.312 0 3.454-1.154 3.454-3.489v-4.375h-2.79zm-9.871 7.703h2.843V21.513h-2.843V40.3zm-4.125-10.441c0 .752-.345 1.101-1.062 1.101h-1.169v-6.925h1.169c.717 0 1.062.349 1.062 1.1v4.724zm-.611-8.347h-4.463V40.3h2.843v-6.817h1.62c2.311 0 3.454-1.154 3.454-3.489v-4.992c0-2.335-1.142-3.489-3.454-3.489z" fill="#fafafa"/><path fill-rule="evenodd" d="M89.902 57.287h16.273l-8.306 2.754-7.967-2.754z" fill="#fafafa"/></g></g><defs><clipPath id="B"><path fill="#fff" transform="translate(77 15)" d="M0 0h42v49H0z"/></clipPath></defs></svg>