<svg xmlns="http://www.w3.org/2000/svg" width="197" height="80" fill="none"><g clip-path="url(#A)" fill="#0d0d0d"><path d="M76.686 34.286c-.998 5.523-2.866 10.841-5.528 15.743h-4.572a51.12 51.12 0 0 1-5.552-15.743h4.299a48.22 48.22 0 0 0 3.254 11.94l.297.713.297-.713a48.7 48.7 0 0 0 3.262-11.94h4.242zm16.535 7.789c0 5.17-2.941 8.286-7.85 8.286s-7.826-3.074-7.826-8.244 2.836-8.12 7.826-8.12 7.85 2.95 7.85 8.12v-.041zm-4.17 0c0-3.049-1.382-4.889-3.68-4.889s-3.632 1.831-3.632 4.889c0 3.231 1.285 5.038 3.632 5.038s3.672-1.856 3.672-5.038h.008zm33.955-.522c0 5.551-3.013 8.75-8.268 8.75-4.821 0-7.231-2.767-7.231-8.468V26h4.17v9.744l.522-.356c1.305-.957 2.866-1.473 4.467-1.475 3.945 0 6.316 2.85 6.316 7.639h.024zm-4.443.356c0-2.85-1.238-4.507-3.383-4.507-1.237.06-2.418.544-3.359 1.376l-.12.099v3.314c0 2.999 1.213 4.731 3.358 4.731s3.504-1.889 3.504-5.013zm21.741.124c0 5.17-2.932 8.286-7.849 8.286s-7.842-3.116-7.842-8.286 2.836-8.12 7.817-8.12 7.85 2.95 7.85 8.12h.024zm-4.17 0c0-3.049-1.382-4.889-3.679-4.889s-3.624 1.831-3.624 4.889c0 3.231 1.285 5.038 3.624 5.038s3.679-1.856 3.679-5.038zm5.801 4.375v3.265a16.63 16.63 0 0 0 4.861.605c4.982 0 7.232-1.5 7.232-4.889 0-2.975-1.88-3.836-3.777-4.499-.43-.149-.867-.277-1.309-.381-1.527-.439-2.74-.829-2.74-1.864s.803-1.475 2.539-1.475a22.62 22.62 0 0 1 4.419.464v-3.206a17.46 17.46 0 0 0-4.194-.514c-4.492 0-6.862 1.657-6.862 4.789 0 2.743 1.977 3.613 4.194 4.325.201.075.402.124.595.199 1.559.514 2.788.92 2.788 2.063 0 1.558-1.607 1.757-2.933 1.757a25.22 25.22 0 0 1-4.821-.638m13.989 0v3.265a16.65 16.65 0 0 0 4.861.605c4.981 0 7.231-1.5 7.231-4.889 0-2.975-1.872-3.845-3.776-4.499a15 15 0 0 0-1.302-.389c-1.527-.431-2.74-.787-2.74-1.856s.804-1.475 2.539-1.475a22.62 22.62 0 0 1 4.419.456V34.42a17.87 17.87 0 0 0-4.194-.505c-4.491 0-6.861 1.657-6.861 4.781 0 2.751 1.976 3.621 4.194 4.333l.594.199c1.551.514 2.788.92 2.788 2.063 0 1.55-1.607 1.757-2.94 1.757a25.78 25.78 0 0 1-4.821-.638m-52.451-8.81a5.54 5.54 0 0 1 1.76.273l.803-3.563c-.26-.096-.529-.163-.803-.199a5.2 5.2 0 0 0-1.012-.075c-.741-.022-1.478.108-2.17.381a5.93 5.93 0 0 0-1.526.887 5.71 5.71 0 0 0-.989.994l-.145.182-.177-2.196h-3.953v15.66h4.098v-8.418a3.79 3.79 0 0 1 .294-1.582c.21-.498.524-.943.92-1.302.818-.694 1.849-1.064 2.908-1.044m-63.281 9.191a26.68 26.68 0 0 0-2.716 7.457c.763.266 1.548.454 2.346.563a24.16 24.16 0 0 1 1.607-5.85 23.49 23.49 0 0 1 1.607 5.883c.806-.109 1.599-.298 2.37-.563a26.65 26.65 0 0 0-2.74-7.457l-2.475-.033zm-2.908-2.312c-2.495.733-4.867 1.85-7.038 3.314.366.743.797 1.45 1.286 2.113 1.591-1.211 3.325-2.21 5.158-2.975a22.65 22.65 0 0 1-2.86 5.278c.639.523 1.335.967 2.073 1.326a25.85 25.85 0 0 0 3.158-7.275l-1.776-1.781zm-.474-3.795a24.84 24.84 0 0 0-7.231-2.801 13.82 13.82 0 0 0-.57 2.419 22.68 22.68 0 0 1 5.673 1.657 21.8 21.8 0 0 1-5.705 1.657 13.41 13.41 0 0 0 .546 2.444 24.96 24.96 0 0 0 7.231-2.825l.056-2.552zm2.249-2.999a27.09 27.09 0 0 0-3.214-7.258 14.95 14.95 0 0 0-2.017 1.326c1.18 1.639 2.152 3.427 2.892 5.319-1.844-.747-3.582-1.747-5.166-2.974a11.87 11.87 0 0 0-1.286 2.138 24.34 24.34 0 0 0 7.063 3.256l1.727-1.806z"/><path d="M42.723 37.194a26.02 26.02 0 0 0 2.716-7.457 12.65 12.65 0 0 0-2.338-.555c-.296 2.012-.836 3.977-1.607 5.85a23.16 23.16 0 0 1-1.607-5.883c-.819.105-1.627.294-2.41.564a26.71 26.71 0 0 0 2.74 7.457l2.507.025zm2.917 2.32a25.35 25.35 0 0 0 7.03-3.314 13.33 13.33 0 0 0-1.286-2.113 23.19 23.19 0 0 1-5.158 2.975 23.2 23.2 0 0 1 2.86-5.261 11.25 11.25 0 0 0-2.073-1.318 25.6 25.6 0 0 0-3.158 7.275l1.784 1.757zm.466 3.795a24.92 24.92 0 0 0 7.231 2.801 13.81 13.81 0 0 0 .57-2.419 22.76 22.76 0 0 1-5.681-1.657 21.91 21.91 0 0 1 5.705-1.657 13.42 13.42 0 0 0-.538-2.486c-2.536.555-4.975 1.508-7.231 2.825l-.056 2.593zm5.255 6.587a10.97 10.97 0 0 0 1.285-2.138 24.29 24.29 0 0 0-7.054-3.256l-1.752 1.806c.711 2.57 1.794 5.014 3.214 7.25a12.81 12.81 0 0 0 2.033-1.326c-1.176-1.637-2.145-3.422-2.885-5.311a21.14 21.14 0 0 1 5.158 2.975z"/></g><defs><clipPath id="A"><path fill="#fff" transform="translate(29 26)" d="M0 0h139v29H0z"/></clipPath></defs></svg>