<svg xmlns="http://www.w3.org/2000/svg" width="197" height="80" fill="none"><path fill-rule="evenodd" d="M44.375 21.106c-2.671-2.8-7.412-2.8-10.007-.054l2.059 2.059a4.04 4.04 0 0 1 2.96-1.169 4.22 4.22 0 0 1 2.928 1.223l2.06-2.059zm-9.17 11.144h-2.896c-.118-1.512.622-4.065 2.778-5.717 2.188-1.673 5.191-1.931 7.605-.622 2.671 1.437 3.819 4.162 3.765 6.318-.172.043-2.446.064-2.907.021l-.075-.708c-.257-1.727-1.684-3.175-3.39-3.465-1.963-.332-3.872.772-4.591 2.639a4.8 4.8 0 0 0-.29 1.523v.011zm4.537 15.413c4.215.011 7.648-3.4 7.648-7.583l-.011.011c.011-4.183-3.411-7.594-7.626-7.594-4.205-.011-7.637 3.379-7.637 7.551a7.6 7.6 0 0 0 7.626 7.616zm.022-12.228c2.596 0 4.677 2.081 4.677 4.644h-.011c0 2.585-2.092 4.644-4.698 4.644-2.585-.011-4.677-2.092-4.677-4.644 0-2.574 2.113-4.644 4.709-4.644zm-8.582.741v-2.917h-.011c-1.019-.011-1.974.193-2.896.601a7.06 7.06 0 0 0-3.1 2.606c-1.534 2.317-1.566 5.299-.075 7.648.751 1.191 1.77 2.081 3.046 2.671a7.16 7.16 0 0 0 3.035.665v-2.917c-2.456-.022-4.269-2.038-4.237-4.226.032-2.199 1.834-4.097 4.237-4.129zm16.379 0v-2.917c.998 0 1.931.193 2.832.579 1.298.558 2.349 1.416 3.143 2.596 1.545 2.285 1.609 5.267.161 7.605-.751 1.212-1.77 2.124-3.057 2.724-.965.461-1.984.697-3.078.687v-2.928c1.341-.043 2.456-.547 3.304-1.587.644-.794.944-1.716.912-2.735-.064-1.963-1.684-3.937-4.226-4.012l.011-.011zm-1.105 12.282h-2.885l-.021.011-.044.294h0 0 0c-.044.3-.087.588-.16.864-.526 1.941-2.36 3.229-4.366 3.057-1.909-.161-3.55-1.781-3.743-3.701-.011-.086-.019-.172-.027-.257l-.027-.257c-.472-.043-2.735-.032-2.907.021-.043 2.21 1.148 4.913 3.797 6.328 2.424 1.287 5.438 1.03 7.615-.676a7.07 7.07 0 0 0 2.381-3.336c.268-.762.407-1.534.386-2.349zm.933 7.079v-2.928c.038 0 .078-.005.118-.011s.081-.011.118-.011a4.21 4.21 0 0 0 3.958-3.529c.022-.131.034-.266.046-.403h0l.019-.198h2.928c0 .858-.15 1.684-.45 2.478-.579 1.512-1.566 2.692-2.939 3.54-1.148.708-2.403 1.062-3.786 1.073l-.011-.011zm11.242-10.179c2.724-2.542 2.885-7.315.064-10.007l-2.059 2.059a4.12 4.12 0 0 1 1.158 2.95c-.021 1.158-.461 2.135-1.223 2.939l2.059 2.059zM26.945 32.197h-2.939c.043-1.898.686-3.529 1.995-4.88 1.416-1.448 3.143-2.167 5.181-2.199v2.939c-1.158.032-2.156.418-2.982 1.212-.815.794-1.223 1.781-1.255 2.928zm17.43 27.47l-2.059-2.059v-.011a4.04 4.04 0 0 1-2.971 1.169c-1.148-.021-2.124-.461-2.907-1.212l-2.07 2.07c2.8 2.853 7.498 2.703 10.008.043zm-13.022-7.069v2.939a7.17 7.17 0 0 1-2.778-.547c-1.459-.611-2.606-1.609-3.422-2.971-.644-1.083-.976-2.263-.976-3.55h2.928c.032 1.148.44 2.134 1.266 2.939.815.794 1.813 1.18 2.971 1.201l.011-.011zm-9.171-15.199l-2.059-2.059h-.011c-2.971 2.917-2.639 7.658-.064 10.018l2.059-2.059c-.772-.815-1.18-1.813-1.158-2.96s.472-2.124 1.233-2.939zm25.378-9.342v-2.896c3.636-.204 7.283 3.111 7.144 7.036h-2.907c-.032-1.137-.44-2.135-1.266-2.928-.815-.794-1.813-1.18-2.971-1.212zm22.889-.555v1.006h2.944v8.355h1.134v-8.355h2.944v-1.006H70.45zm9.703 9.361V32.64c0-.408.079-.756.238-1.042s.381-.504.658-.654A1.99 1.99 0 0 1 82 30.72c.509 0 .907.154 1.193.462s.434.736.434 1.293v4.388h1.079v-4.461c0-.603-.1-1.1-.302-1.49s-.477-.684-.837-.873-.779-.288-1.257-.288c-.552 0-.993.108-1.325.325s-.576.501-.741.864h-.091v-3.437h-1.079v9.361h1.079zm7.719-.302c.491.299 1.074.448 1.751.448a3.56 3.56 0 0 0 1.284-.219c.381-.149.701-.357.96-.622a2.31 2.31 0 0 0 .553-.932l-1.042-.293a1.66 1.66 0 0 1-.389.612c-.168.162-.367.283-.599.366s-.484.119-.768.119c-.436 0-.818-.094-1.147-.283s-.587-.471-.773-.836c-.166-.334-.256-.735-.272-1.202h5.099v-.457c0-.655-.087-1.207-.26-1.655s-.407-.808-.699-1.079-.617-.472-.973-.594a3.33 3.33 0 0 0-1.083-.183c-.634 0-1.188.155-1.664.466s-.841.737-1.106 1.289-.393 1.182-.393 1.902.131 1.35.393 1.892.641.96 1.129 1.261zm-.438-3.776a2.4 2.4 0 0 1 .246-.923c.168-.338.407-.613.718-.823s.686-.32 1.115-.32c.39 0 .728.09 1.015.27a1.79 1.79 0 0 1 .667.736c.159.311.238.664.238 1.06h-3.999zm10.503-5.284v9.361h5.722v-1.006H99.07v-3.181h4.224v-1.006H99.07v-3.163h4.516v-1.006h-5.649zm7.546 2.34v7.021h1.079v-4.388c0-.344.073-.647.219-.91s.345-.472.585-.622a1.48 1.48 0 0 1 .787-.224c.408 0 .742.123 1.001.37s.388.565.388.964v4.809h1.097v-4.571c0-.454.136-.829.407-1.124s.653-.448 1.147-.448c.384 0 .718.111 1.001.334s.425.593.425 1.111v4.699h1.079v-4.699c0-.826-.2-1.434-.599-1.824s-.912-.59-1.54-.59c-.503 0-.934.108-1.294.325a2.05 2.05 0 0 0-.809.864h-.073c-.174-.375-.416-.666-.727-.873s-.693-.315-1.156-.315c-.457 0-.849.105-1.175.315a1.76 1.76 0 0 0-.708.873h-.092v-1.097h-1.042zm11.187 0v7.021h1.079v-7.021h-1.079zm.005-1.385c.152.143.333.215.544.215a.75.75 0 0 0 .539-.215c.152-.143.229-.315.229-.517s-.077-.373-.229-.516a.75.75 0 0 0-.539-.215c-.211 0-.392.072-.544.215s-.224.315-.224.516.074.373.224.517zm7.054 3.232l.969-.274c-.168-.5-.451-.902-.85-1.207s-.942-.457-1.637-.457c-.493 0-.935.087-1.325.261s-.694.413-.919.718-.334.655-.334 1.051c0 .485.15.888.448 1.211s.774.556 1.417.709l1.17.274c.354.082.616.207.786.375s.256.369.256.612c0 .302-.149.561-.448.777s-.694.32-1.197.32c-.442 0-.8-.094-1.074-.283s-.456-.472-.553-.85l-1.024.256c.125.597.422 1.051.891 1.362s1.062.466 1.778.466c.546 0 1.024-.091 1.435-.274s.732-.433.96-.75a1.78 1.78 0 0 0 .348-1.079c0-.491-.154-.891-.462-1.202s-.775-.547-1.403-.699l-1.042-.256c-.415-.104-.719-.233-.915-.389s-.292-.367-.292-.635c0-.302.142-.55.425-.745s.645-.297 1.074-.297c.314 0 .572.05.773.151a1.31 1.31 0 0 1 .475.384 1.8 1.8 0 0 1 .27.471zm6.724 0l.969-.274a2.46 2.46 0 0 0-.85-1.207c-.396-.305-.941-.457-1.636-.457-.494 0-.936.087-1.326.261s-.693.413-.918.718-.334.655-.334 1.051c0 .485.149.888.448 1.211s.774.556 1.417.709l1.17.274c.354.082.616.207.786.375s.256.369.256.612c0 .302-.149.561-.448.777s-.695.32-1.197.32c-.442 0-.8-.094-1.074-.283s-.456-.472-.554-.85l-1.023.256c.125.597.422 1.051.891 1.362s1.062.466 1.778.466c.545 0 1.024-.091 1.435-.274s.732-.433.96-.75a1.78 1.78 0 0 0 .347-1.079c0-.491-.153-.891-.461-1.202s-.776-.547-1.403-.699l-1.043-.256c-.414-.104-.719-.233-.914-.389s-.292-.367-.292-.635c0-.302.141-.55.425-.745s.644-.297 1.074-.297c.314 0 .571.05.772.151s.36.229.476.384.209.309.269.471zm2.721-1.847v7.021h1.079v-7.021h-1.079zm.005-1.385c.152.143.333.215.544.215a.75.75 0 0 0 .539-.215c.152-.143.229-.315.229-.517s-.077-.373-.229-.516a.75.75 0 0 0-.539-.215c-.211 0-.392.072-.544.215s-.224.315-.224.516.074.373.224.517zm4.234 8.099c.478.302 1.034.453 1.668.453s1.188-.151 1.664-.453.85-.724 1.115-1.266.402-1.176.402-1.901c0-.731-.134-1.37-.402-1.915s-.637-.969-1.115-1.271-1.03-.453-1.664-.453-1.19.151-1.668.453-.848.725-1.116 1.271-.397 1.184-.397 1.915c0 .725.132 1.359.397 1.901a3.07 3.07 0 0 0 1.116 1.266zm2.856-.887c-.311.247-.707.37-1.188.37s-.878-.123-1.189-.37-.54-.571-.69-.974-.224-.838-.224-1.307.075-.907.224-1.312.38-.733.69-.983.707-.375 1.189-.375.877.125 1.188.375.541.578.69.983a3.75 3.75 0 0 1 .224 1.312c0 .469-.074.905-.224 1.307s-.379.727-.69.974zm4.718 1.193V32.64c0-.408.078-.756.234-1.042a1.6 1.6 0 0 1 .635-.654c.271-.149.579-.224.923-.224.5 0 .893.155 1.18.466s.429.738.429 1.289v4.388h1.079v-4.461c0-.597-.099-1.091-.297-1.481s-.476-.686-.832-.878-.773-.293-1.248-.293c-.53 0-.963.11-1.298.329a2.01 2.01 0 0 0-.75.859h-.091v-1.097h-1.042v7.021h1.078zm10.455-5.174l.969-.274c-.168-.5-.451-.902-.85-1.207s-.942-.457-1.636-.457c-.494 0-.936.087-1.326.261s-.693.413-.919.718-.333.655-.333 1.051c0 .485.149.888.448 1.211s.774.556 1.417.709l1.17.274c.353.082.615.207.786.375a.82.82 0 0 1 .256.612c0 .302-.15.561-.448.777s-.695.32-1.198.32c-.442 0-.8-.094-1.074-.283s-.455-.472-.553-.85l-1.024.256c.125.597.422 1.051.892 1.362s1.061.466 1.778.466c.545 0 1.023-.091 1.435-.274s.731-.433.96-.75.347-.677.347-1.079c0-.491-.154-.891-.462-1.202s-.775-.547-1.403-.699l-1.042-.256c-.414-.104-.719-.233-.914-.389s-.293-.367-.293-.635c0-.302.142-.55.425-.745s.645-.297 1.075-.297c.313 0 .571.05.772.151a1.3 1.3 0 0 1 .475.384 1.8 1.8 0 0 1 .27.471zM77.361 46.428h1.134a3.73 3.73 0 0 0-.466-1.284c-.225-.378-.506-.698-.841-.96a3.63 3.63 0 0 0-1.129-.603 4.21 4.21 0 0 0-1.33-.206c-.798 0-1.508.195-2.13.585s-1.111.945-1.467 1.664-.535 1.572-.535 2.56.178 1.84.535 2.56.846 1.274 1.467 1.664 1.332.585 2.13.585a4.21 4.21 0 0 0 1.33-.206 3.68 3.68 0 0 0 1.129-.599 3.51 3.51 0 0 0 .841-.964c.225-.378.381-.806.466-1.284h-1.134a2.4 2.4 0 0 1-.352.859 2.41 2.41 0 0 1-.603.626c-.235.168-.495.294-.782.379a3.12 3.12 0 0 1-.896.128c-.567 0-1.08-.143-1.54-.43s-.821-.708-1.093-1.266-.402-1.242-.402-2.052.134-1.495.402-2.052.635-.98 1.093-1.266.974-.43 1.54-.43a3.12 3.12 0 0 1 .896.128 2.56 2.56 0 0 1 .782.384c.238.168.439.375.603.622s.285.533.352.859zm3.674 6.349c.363.168.766.251 1.211.251.408 0 .754-.061 1.038-.183s.51-.27.681-.443a1.9 1.9 0 0 0 .366-.489h.055v.951h1.079v-4.626c0-.558-.091-1.002-.274-1.335s-.413-.581-.69-.745-.559-.273-.855-.325a4.27 4.27 0 0 0-.777-.082c-.353 0-.713.049-1.079.146a2.74 2.74 0 0 0-1.006.503c-.305.238-.548.57-.731.996l1.024.366c.119-.256.325-.497.617-.722s.696-.338 1.211-.338c.497 0 .867.125 1.111.375s.37.6.37 1.051v.037c0 .174-.062.296-.187.366s-.317.12-.585.151-.611.069-1.038.123a10.71 10.71 0 0 0-.974.174c-.32.07-.612.177-.878.32s-.477.341-.635.594-.238.576-.238.978c0 .457.107.847.32 1.17s.501.565.864.736zm2.454-.969c-.292.168-.652.251-1.079.251s-.785-.094-1.065-.283-.416-.475-.416-.85c0-.274.073-.491.219-.649s.344-.282.585-.361.506-.142.786-.178l.453-.055.581-.082c.201-.033.378-.072.53-.114s.256-.096.302-.151v.987c0 .293-.076.571-.229.837a1.71 1.71 0 0 1-.667.649zm3.944-5.965v9.654h1.079v-3.712h.091a6.92 6.92 0 0 0 .338.485c.146.192.355.364.626.517s.632.224 1.083.224c.585 0 1.102-.148 1.55-.443s.798-.719 1.051-1.262.379-1.19.379-1.933c0-.737-.127-1.377-.379-1.92s-.605-.961-1.056-1.257-.972-.443-1.563-.443c-.457 0-.82.076-1.088.229s-.469.32-.612.512-.25.344-.329.466h-.128v-1.115h-1.042zm1.294 4.914c-.155-.405-.233-.873-.233-1.403 0-.524.076-.983.228-1.376s.378-.704.677-.923.667-.334 1.106-.334c.457 0 .837.117 1.138.352s.532.547.681.946.229.841.229 1.335c0 .5-.078.954-.233 1.362s-.381.728-.686.969-.678.357-1.129.357c-.433 0-.798-.113-1.097-.338s-.526-.544-.681-.946zm9.603-3.999v-.914h-1.499v-1.682h-1.079v1.682h-1.06v.914h1.06v4.388c0 .408.094.746.283 1.015a1.78 1.78 0 0 0 .722.599 2.17 2.17 0 0 0 .896.197c.201 0 .367-.015.498-.046s.233-.055.306-.082l-.219-.969-.183.037a1.91 1.91 0 0 1-.293.018c-.158 0-.309-.024-.453-.073s-.256-.152-.347-.302-.133-.381-.133-.686v-4.095h1.499zm6.047-.914v4.15c0 .439-.096.8-.288 1.083a1.78 1.78 0 0 1-.704.631c-.277.137-.55.206-.818.206-.448 0-.817-.152-1.106-.457s-.43-.713-.43-1.225v-4.388h-1.079v4.461c0 .597.097 1.092.293 1.485s.463.683.804.878a2.35 2.35 0 0 0 1.171.288c.53 0 .969-.123 1.316-.37a2.31 2.31 0 0 0 .768-.91h.073v1.188h1.079v-7.021h-1.079zm4.097 0h-1.043v7.021h1.079v-4.443a1.57 1.57 0 0 1 .229-.846c.155-.25.365-.445.63-.585s.573-.215.915-.215a2.46 2.46 0 0 1 .406.032c.131.018.215.032.252.041v-1.097c-.061-.006-.151-.011-.27-.014l-.297-.005c-.42 0-.798.108-1.133.325s-.567.498-.695.846h-.073v-1.06zm4.726 6.719c.49.299 1.074.448 1.75.448a3.56 3.56 0 0 0 1.285-.219c.381-.149.701-.357.96-.622s.443-.579.553-.932l-1.042-.293c-.092.244-.221.448-.389.612s-.367.283-.599.366a2.33 2.33 0 0 1-.768.119c-.435 0-.818-.094-1.147-.283s-.586-.471-.772-.836c-.166-.334-.257-.735-.272-1.202h5.098v-.457c0-.655-.086-1.207-.26-1.655s-.407-.808-.699-1.079-.617-.472-.974-.594a3.33 3.33 0 0 0-1.083-.183c-.634 0-1.189.155-1.664.466s-.841.737-1.106 1.289-.393 1.182-.393 1.901.131 1.35.393 1.892.641.96 1.129 1.261zm-.438-3.776c.02-.326.102-.633.246-.923.167-.338.407-.612.717-.823s.686-.32 1.116-.32c.39 0 .728.09 1.014.27s.512.425.668.736.237.664.237 1.06h-3.998zm16.902-2.358h1.133c-.085-.481-.24-.91-.466-1.284s-.506-.698-.841-.96a3.62 3.62 0 0 0-1.129-.603c-.414-.137-.858-.206-1.33-.206-.798 0-1.508.195-2.13.585s-1.111.945-1.467 1.664-.535 1.572-.535 2.56.178 1.84.535 2.56.845 1.274 1.467 1.664 1.332.585 2.13.585c.472 0 .916-.069 1.33-.206s.794-.337 1.129-.599.616-.587.841-.964a3.76 3.76 0 0 0 .466-1.284h-1.133c-.067.323-.184.609-.352.859s-.366.456-.603.626-.496.294-.782.379a3.12 3.12 0 0 1-.896.128c-.567 0-1.08-.143-1.54-.43s-.821-.708-1.093-1.266-.402-1.242-.402-2.052.134-1.495.402-2.052.636-.98 1.093-1.266.973-.43 1.54-.43a3.12 3.12 0 0 1 .896.128c.286.085.547.213.782.384a2.36 2.36 0 0 1 .603.622c.168.247.285.533.352.859zm4.003 6.129c.478.302 1.034.453 1.668.453s1.188-.151 1.664-.453.85-.724 1.115-1.266.402-1.176.402-1.901c0-.731-.134-1.37-.402-1.915s-.637-.969-1.115-1.271-1.03-.453-1.664-.453-1.19.151-1.668.453-.847.725-1.116 1.271-.397 1.184-.397 1.915c0 .725.132 1.359.397 1.901s.64.965 1.116 1.266zm2.856-.887c-.31.247-.706.37-1.188.37s-.878-.123-1.188-.37-.541-.571-.691-.974-.223-.838-.223-1.307.074-.907.223-1.312.38-.733.691-.983.707-.375 1.188-.375.878.125 1.188.375.541.578.691.983.224.843.224 1.312-.075.905-.224 1.307-.38.727-.691.974zm4.682-5.828h-1.042v7.021h1.079v-4.388c0-.344.073-.647.219-.91s.344-.472.585-.622a1.48 1.48 0 0 1 .786-.224c.409 0 .742.123 1.001.37s.389.565.389.964v4.809h1.097v-4.571c0-.454.135-.829.407-1.124s.653-.448 1.147-.448c.384 0 .718.111 1.001.334s.425.593.425 1.111v4.699h1.079v-4.699c0-.826-.2-1.434-.599-1.824s-.913-.59-1.54-.59c-.503 0-.934.108-1.294.325s-.629.501-.809.864h-.073c-.174-.375-.416-.666-.727-.873s-.693-.315-1.156-.315c-.457 0-.849.105-1.175.315a1.76 1.76 0 0 0-.708.873h-.092v-1.097zm10.145 0v9.654h1.079v-3.712h.091c.079.128.192.29.338.485s.355.364.627.517.632.224 1.083.224c.585 0 1.101-.148 1.549-.443s.799-.719 1.052-1.262.379-1.19.379-1.933c0-.737-.126-1.377-.379-1.92a2.95 2.95 0 0 0-1.056-1.257c-.451-.296-.972-.443-1.563-.443-.457 0-.82.076-1.088.229s-.47.32-.613.512a9.55 9.55 0 0 0-.329.466h-.128v-1.115h-1.042zm1.294 4.914c-.156-.405-.234-.873-.234-1.403 0-.524.077-.983.229-1.376s.378-.704.676-.923.668-.334 1.107-.334c.457 0 .836.117 1.138.352s.531.547.681.946.228.841.228 1.335a3.79 3.79 0 0 1-.233 1.362c-.152.405-.381.728-.685.969s-.678.357-1.129.357c-.433 0-.799-.113-1.097-.338s-.526-.544-.681-.946zm7.404 2.02c.363.168.767.251 1.212.251.408 0 .754-.061 1.037-.183s.511-.27.681-.443a1.89 1.89 0 0 0 .366-.489h.055v.951h1.078v-4.626c0-.558-.091-1.002-.274-1.335s-.413-.581-.69-.745-.559-.273-.855-.325a4.26 4.26 0 0 0-.777-.082c-.353 0-.713.049-1.079.146s-.697.262-1.005.503-.549.57-.731.996l1.023.366c.119-.256.325-.497.617-.722s.697-.338 1.212-.338c.496 0 .867.125 1.11.375s.371.6.371 1.051v.037c0 .174-.063.296-.188.366s-.317.12-.585.151-.611.069-1.037.123a10.72 10.72 0 0 0-.974.174 3.35 3.35 0 0 0-.878.32 1.68 1.68 0 0 0-.635.594c-.158.25-.238.576-.238.978 0 .457.107.847.32 1.17s.502.565.864.736zm2.455-.969c-.293.168-.652.251-1.079.251s-.785-.094-1.065-.283-.416-.475-.416-.85c0-.274.073-.491.22-.649a1.35 1.35 0 0 1 .585-.361c.243-.082.505-.142.786-.178l.452-.055.581-.082a5.08 5.08 0 0 0 .53-.114c.155-.046.256-.096.302-.151v.987a1.66 1.66 0 0 1-.229.837c-.149.265-.372.481-.667.649zm5.022 1.056V48.64c0-.408.078-.756.233-1.042a1.6 1.6 0 0 1 .635-.654c.272-.149.579-.224.924-.224.499 0 .893.155 1.179.466s.43.737.43 1.289v4.388h1.078v-4.461c0-.597-.099-1.091-.297-1.481s-.475-.686-.832-.878-.772-.292-1.247-.292c-.531 0-.963.11-1.299.329a2 2 0 0 0-.749.859h-.092v-1.097h-1.042v7.021h1.079zm6.405 2.587c.143.03.306.046.489.046.326 0 .618-.058.877-.174s.493-.294.691-.535.364-.538.498-.901l2.98-8.045h-1.17l-1.938 5.595h-.073l-1.938-5.595h-1.17l2.596 7.057-.201.549c-.131.357-.276.614-.434.772s-.334.251-.535.27-.433-.006-.695-.073l-.274.951a1.3 1.3 0 0 0 .297.082z" fill="#0d0d0d"/></svg>