<svg xmlns="http://www.w3.org/2000/svg" width="197" height="80" fill="#0d0d0d"><path d="M129.647 26.904c.023-.005.029-.003.034 0 6.873 2.197 10.81 7.335 10.981 14.438.052 2.118-.141 4.202-.259 6.324l-.065.859c2.33-8.337 1.413-18.24-10.125-22.072-.028 0-.024-.049 0-.055 6.389-1.87 15.105-.59 16.533 8.512.966 6.149-.899 11.681-4.36 16.666-1.451 2.118-3.386 3.872-5.117 5.785a1.55 1.55 0 0 1-.355.251c-.143-1.95-.122-3.939-.473-5.862-.649-3.527-2.703-6.418-4.666-9.316a60.34 60.34 0 0 1-3.586-5.73c-1.724-3.331-1.094-7.127 1.458-9.798zm-44.105 1.297c-.69-4.687-3.206-9.753-5.984-13.675-.022-.031-.033-.068-.032-.105a.18.18 0 0 1 .035-.105c.022-.03.053-.052.089-.063a.17.17 0 0 1 .108.003c.422.148.749.262 1.069.399 4.907 2.054 7.039 5.453 6.817 10.891a32.07 32.07 0 0 1-1.47 8.04c-.007.018-.018.033-.034.044a.09.09 0 0 1-.052.017c-.019 0-.037-.006-.052-.017s-.027-.026-.033-.044c-1.16-3-3.351-4.877-5.3-6.948-2.944-3.128-3.44-7.751-2.505-10.39a10.53 10.53 0 0 1 .644-1.429l.1-.14c.011-.015.026-.027.043-.036a.12.12 0 0 1 .054-.013c.019 0 .037.004.054.013s.031.021.043.036c2.89 3.838 5.457 9.09 6.409 13.524zm26.371 10.156c-2.995-6.205-8.742-12.133-14.369-16.358-.044-.033-.076-.079-.092-.132s-.014-.109.005-.161a.26.26 0 0 1 .254-.171c.662.021 1.175.034 1.686.084 7.84.696 12.325 4.478 14.35 12.126.97 3.86 1.432 7.829 1.375 11.808-.002.027-.012.054-.029.076s-.04.038-.066.046a.14.14 0 0 1-.081 0c-.026-.009-.05-.025-.067-.047-2.935-3.656-6.849-5.298-10.503-7.318-5.52-3.049-8.212-9.251-8.023-13.326a15.16 15.16 0 0 1 .298-2.267l.081-.238c.01-.026.025-.049.046-.068s.044-.033.071-.041a.19.19 0 0 1 .082-.006.18.18 0 0 1 .076.031c5.748 4.059 11.648 10.223 14.906 15.961zM63.694 2c2.316 2.091 5 3.907 7.834 5.57s5.828 3.214 8.965 4.572c6.281 2.756 13.103 4.869 20.242 6.421s14.546 2.593 22.162 3.134 15.333.641 23.102.353l-5.843.462-5.879.257c-3.895.083-7.804.083-11.627-.1-3.872-.132-7.673-.531-11.481-.97-3.757-.49-7.485-1.154-11.112-1.92-3.577-.817-7.117-1.767-10.571-2.901-3.396-1.144-6.699-2.43-9.8-3.921-3.094-1.449-6.05-3.134-8.791-4.94-1.342-.908-2.633-1.867-3.874-2.877-1.176-.979-2.359-1.999-3.327-3.14z"/><path d="M77.998 11.849l.533 1.445-1.902-2.092 1.369.647zm16.013 6.163l.723 1.826-2.891-2.549 2.168.723zm28.187 4.412l1.826 1.522-5.554-2.092 3.728.571zM50.616 42.206v2.098H50v-4.898h1.711c.915 0 1.454.539 1.454 1.4s-.539 1.4-1.454 1.4h-1.095zm1.126-.587c.108.01.217-.004.319-.041a.72.72 0 0 0 .465-.771.72.72 0 0 0-.784-.812h-1.126v1.625h1.126zm5.323 2.685l-1.425-2.309h-.75v2.309h-.616v-4.898h1.631c.872 0 1.425.485 1.425 1.294.018.299-.077.594-.266.826s-.459.385-.755.428l1.463 2.349h-.707zm-2.175-4.31v1.425h1.035c.525 0 .79-.237.79-.707s-.265-.707-.79-.707l-1.035-.011zm5.664-.642a2.08 2.08 0 0 1 .852.167 2.06 2.06 0 0 1 .708.503 2.54 2.54 0 0 1 .51.851 2.53 2.53 0 0 1 .143.982 2.56 2.56 0 0 1-.639 1.841 2.16 2.16 0 0 1-.712.491c-.268.114-.556.173-.848.173a2.16 2.16 0 0 1-1.559-.664c-.446-.506-.674-1.168-.636-1.841a2.53 2.53 0 0 1 .135-.98 2.52 2.52 0 0 1 .5-.853 2.07 2.07 0 0 1 1.545-.67zm0 .587c-.215-.007-.429.034-.626.12a1.45 1.45 0 0 0-.514.376c-.313.407-.467.913-.433 1.425-.034.512.12 1.019.433 1.425a1.45 1.45 0 0 0 .514.377 1.43 1.43 0 0 0 .626.119 1.42 1.42 0 0 0 .616-.122c.194-.086.366-.214.504-.375a2.06 2.06 0 0 0 .439-1.425c.036-.513-.12-1.022-.439-1.425-.138-.161-.31-.289-.504-.375a1.42 1.42 0 0 0-.616-.121zm5.198-.533h.616v3.396a1.55 1.55 0 0 1-.408 1.14c-.132.137-.29.245-.466.317a1.37 1.37 0 0 1-.555.102c-.363.012-.716-.114-.991-.351a1.44 1.44 0 0 1-.491-.929l.622-.145c.12.553.408.824.855.824.539 0 .812-.333.812-.998l.006-3.355zm1.944 0h2.811v.587h-2.195v1.408h1.776v.587h-1.776v1.728h2.281v.587h-2.897v-4.898zm7.923 3.47a1.96 1.96 0 0 1-.67 1.078 1.9 1.9 0 0 1-1.246.408 2.12 2.12 0 0 1-.852-.165 2.11 2.11 0 0 1-.713-.494 2.55 2.55 0 0 1-.645-1.847c-.02-.335.027-.671.138-.988a2.55 2.55 0 0 1 .507-.859 2.12 2.12 0 0 1 1.565-.656c.451-.014.892.133 1.246.413.337.271.572.648.67 1.069l-.593.174c-.232-.713-.673-1.069-1.323-1.069a1.46 1.46 0 0 0-.626.121 1.47 1.47 0 0 0-.515.375c-.313.407-.467.913-.433 1.425-.034.512.12 1.019.433 1.425.142.162.317.291.514.376a1.45 1.45 0 0 0 .626.12c.65 0 1.091-.356 1.323-1.069l.593.162zm.75-2.882v-.587h3.441v.587h-1.425v4.31h-.616v-4.31h-1.4zM58.53 59.387l-1.035-1.006a4.12 4.12 0 0 1-2.748 1.049c-2.649 0-4.747-2.169-4.747-5.018 0-2.791 1.927-5.003 4.676-5.003 1.006 0 2.409.285 3.287.949l.2 2.68c-.525-2.141-1.87-3.421-3.558-3.421-1.899 0-3.398 1.602-3.398 4.79 0 3.258 1.514 4.804 3.555 4.804a3.42 3.42 0 0 0 1.499-.348 3.41 3.41 0 0 0 1.195-.97v-2.942H57.1l-2.167.057.029-.353c.64.064 1.284.084 1.927.057h1.642v4.676zm2.452-1.28v-5.228c0-.807-.085-1.118-.396-1.503l1.445-.125v6.843c0 .81.157 1.049.736 1.234h-2.52c.593-.143.736-.41.736-1.22zm-.254-8.601c0-.197.078-.386.218-.526s.329-.218.526-.218a.74.74 0 0 1 .526.218c.139.14.218.329.218.526a.74.74 0 0 1-.218.526c-.14.139-.329.218-.526.218a.74.74 0 0 1-.526-.218c-.139-.14-.218-.328-.218-.526zm10.457 1.831a2.35 2.35 0 0 0-.921 1.203l-2.905 6.803h-.157l-2.934-6.76c-.368-.855-.636-1.14-.821-1.246h1.77c-.154.125-.285.339-.071.878l2.523 5.83 2.141-5.003c.622-1.474.14-1.617 0-1.711l1.374.005zm1.643 6.77v-5.228c0-.807-.086-1.118-.396-1.503l1.445-.125v6.843c0 .81.157 1.049.736 1.234h-2.52c.593-.143.736-.41.736-1.22zm-.254-8.601c0-.197.078-.386.218-.526s.329-.218.526-.218a.74.74 0 0 1 .526.218c.139.14.218.329.218.526a.74.74 0 0 1-.218.526c-.14.139-.329.218-.526.218a.74.74 0 0 1-.526-.218c-.139-.14-.218-.328-.218-.526zm9.89 8.603V53.77c0-1.426-.696-2.281-1.996-2.281-1.474 0-2.805 1.121-2.905 3.119v3.501c0 .81.157 1.049.738 1.234h-2.523c.596-.171.736-.424.736-1.234V52.88c0-.807-.083-1.117-.396-1.503l1.445-.125v2.252c.192-.669.605-1.255 1.171-1.661s1.252-.609 1.948-.577c1.799 0 2.834 1.089 2.834 2.649v4.194c0 .81.157 1.049.736 1.234h-2.52c.59-.157.733-.424.733-1.234zm23.253-1.459c0 1.688-1.402 2.694-3.626 2.694h-3.572c.61-.171.767-.425.767-1.249v-7.353c0-.821-.157-1.078-.767-1.249h3.23c2.226 0 3.629.838 3.629 2.341 0 1.245-1.006 2.138-2.68 2.435 1.887.228 3.019 1.078 3.019 2.381zm-5.357-6.928v4.45h1.517c1.445 0 2.381-.924 2.381-2.255 0-1.402-.993-2.195-2.678-2.195h-1.22zm4.211 6.985c0-1.474-1.035-2.309-2.637-2.309h-1.574v4.719h1.517c1.688 0 2.694-.907 2.694-2.409zm7.664 2.679v-1.87c-.368.964-1.14 1.884-2.663 1.884-1.374 0-2.409-.624-2.409-1.856 0-1.711 2.098-2.281 3.444-2.594l1.574-.382v-1.02c0-1.425-.57-2.07-1.688-2.07-1.077 0-2.209.639-2.748 3.062l-.086-2.367a4.88 4.88 0 0 1 2.851-.892c1.645 0 2.706.807 2.706 2.338v4.49c0 .539.114.978.399 1.235l-1.38.043zm-.054-2.851v-1.756l-1.545.37c-.807.197-2.324.65-2.324 2.381 0 .949.553 1.656 1.488 1.656 1.046 0 2.31-.921 2.381-2.648v-.003zm9.76-.484l-.1 2.367c-.855.778-2.138 1.006-3.002 1.006-2.309 0-4.011-1.631-4.011-4.112 0-2.366 1.573-4.037 3.883-4.037a5.13 5.13 0 0 1 3.136 1.118l-.473 2.232c-.24-2.395-1.446-3.162-2.649-3.162-1.616 0-2.748 1.56-2.748 3.855 0 2.352 1.189 3.897 2.876 3.897 1.432 0 2.563-1.121 3.088-3.165zm7.254 3.292c.072-.1.128-.382-.596-1.317l-2.323-3.019-1.332 1.174v1.928c0 .81.158 1.049.736 1.234h-2.52c.593-.171.735-.424.735-1.234v-8.316c0-.57-.071-.781-.353-1.007l1.402-.171v7.242l3.627-3.188c.51-.439.895-.892.855-1.331h1.289c-.368.197-.936.593-2.17 1.67l-1.557 1.375 2.706 3.421 1.303 1.546-1.802-.006zm-37.633-8.262c.285 0 .553.328.964.328a.69.69 0 0 0 .285-.059 1.87 1.87 0 0 1 .855-.086c-.142-.409-.435-.75-.818-.952l-.083-.04h-.026a.98.98 0 0 0-.331-.054c-.664 0-1.303.57-1.426 1.602-.564-.339-1.212-.511-1.87-.496-1.756 0-2.962 1.02-2.962 2.48a2.38 2.38 0 0 0 1.711 2.295h-.2c-.764 0-1.474.285-1.474 1.02 0 .665.525 1.14 1.87 1.246-1.996.086-2.851.596-2.851 1.517 0 1.274 1.996 1.913 3.954 1.913 2.338 0 3.855-.907 3.855-2.281 0-1.317-1.346-1.559-3.529-1.842l-1.671-.214c-.396-.057-.992-.211-.992-.638 0-.354.439-.57 1.16-.57a3.99 3.99 0 0 1 .539.028 4.75 4.75 0 0 0 .61.04c1.742 0 2.948-1.032 2.948-2.506a2.28 2.28 0 0 0-.964-1.899c.034-.618.188-.832.445-.832zm.807 8.915c0 .855-1.175 1.599-3.216 1.599-1.913 0-3.076-.636-3.076-1.685 0-.878.57-1.388 2.666-1.388 1.175 0 3.612.182 3.612 1.474h.014zm-3.187-3.897c-1.26 0-2.027-1.263-2.027-2.481s.767-2.112 1.856-2.112c1.249 0 2.027 1.22 2.027 2.466s-.793 2.127-1.856 2.127z"/></svg>