<svg xmlns="http://www.w3.org/2000/svg" width="197" height="80" fill="none"><g clip-path="url(#A)"><path fill-rule="evenodd" d="M45.661 51.309c0 .92.785 1.668 1.752 1.668s1.752-.748 1.752-1.668v-23.54c0-.92-.785-1.668-1.752-1.668s-1.752.748-1.752 1.668v23.54zm-2.296-17.515v16.135c0 .92-.8 1.668-1.767 1.668s-1.752-.748-1.752-1.668l.015-16.135c0-.92.755-1.668 1.737-1.668s1.767.748 1.767 1.668zm-1.737-6.342c.967 0 1.752.748 1.752 1.668s-.785 1.668-1.752 1.668-1.752-.748-1.752-1.668.785-1.668 1.752-1.668zm-5.815 6.371c.967 0 1.752.748 1.752 1.668s-.785 1.668-1.752 1.668-1.752-.748-1.752-1.668.785-1.668 1.752-1.668zm1.752 6.356v3.423c0 .92-.785 1.654-1.752 1.654s-1.752-.748-1.752-1.668v-3.423c0-.92.785-1.654 1.752-1.654s1.752.748 1.752 1.668zm21.446 5.076c-.967 0-1.752-.748-1.752-1.668s.785-1.668 1.752-1.668 1.752.748 1.752 1.668-.785 1.668-1.752 1.668zm-1.752-6.327v-3.422c0-.92.785-1.668 1.752-1.668s1.752.748 1.752 1.668v3.422c0 .92-.785 1.668-1.752 1.668s-1.752-.748-1.752-1.668zm-5.8 6.327v-16.12c0-.92.785-1.668 1.752-1.668s1.752.748 1.752 1.668v16.12c0 .92-.785 1.668-1.752 1.668s-1.752-.748-1.752-1.668zm1.752 6.342c-.967 0-1.752-.748-1.752-1.668 0-.935.785-1.682 1.752-1.668.967 0 1.752.748 1.752 1.668s-.785 1.668-1.752 1.668zm98.99-18.431c-.016-3.04-2.345-5.335-5.426-5.335-3.066 0-5.381 2.295-5.396 5.35.015 3.026 2.344 5.306 5.396 5.306 3.02 0 5.335-2.222 5.41-5.189l.016-.132zm-1.82 0c-.015 2.441-1.818 3.712-3.591 3.712-2.315 0-3.578-1.915-3.593-3.712v-.029c.031-2.441 1.834-3.727 3.593-3.727 1.773.015 3.576 1.301 3.591 3.756zm-12.79-4.356c0-.497.391-.862.886-.862.512 0 .887.365.873.862v9.559h-1.759V28.81zm-67.44.001c0-.497.391-.862.887-.862.511 0 .887.365.872.862v9.559h-1.759v-9.559zm32.029-.981c3.081 0 5.411 2.295 5.426 5.335l-.015.132c-.075 2.967-2.39 5.189-5.411 5.189-3.051 0-5.381-2.28-5.396-5.306.015-3.055 2.33-5.35 5.396-5.35zm.015 9.048c1.774 0 3.577-1.272 3.592-3.712-.015-2.456-1.818-3.742-3.592-3.756-1.758 0-3.562 1.286-3.592 3.727v.029c.015 1.798 1.278 3.712 3.592 3.712zm32.706-8.857h-7.155a.76.76 0 0 0-.782.775c0 .453.331.775.797.775h2.691v8.784h1.758v-8.77h2.691c.466 0 .796-.322.796-.775-.015-.453-.346-.789-.796-.789zm-47.24 4.268v6.08h-1.743v-6.095c0-2.631 1.773-4.399 4.404-4.399 2.645 0 4.434 1.769 4.434 4.414v6.08h-1.758v-6.066c0-1.798-1.007-2.865-2.675-2.865-1.638 0-2.66 1.082-2.66 2.85zm-11.378 6.08v-6.08c0-1.769 1.022-2.85 2.66-2.85 1.668 0 2.675 1.067 2.675 2.865v6.066h1.759v-6.08c0-2.646-1.789-4.414-4.434-4.414-2.63 0-4.404 1.769-4.404 4.4v6.095h1.743zm79.554-6.08v6.08h-1.743v-6.095c0-2.631 1.774-4.399 4.404-4.399 2.645 0 4.434 1.769 4.434 4.414v6.08h-1.759v-6.066c0-1.798-1.007-2.865-2.675-2.865-1.638 0-2.661 1.082-2.661 2.85zm-38.762-4.356c-.406 0-.676.205-.856.643l-1.038 2.631-.54 1.37-1.369 3.512-3.005-7.557c-.151-.365-.451-.585-.827-.585-.496 0-.887.365-.887.862 0 .161.03.322.105.468l3.773 9.092h1.608l3.773-9.194c.06-.175.105-.322.105-.438 0-.453-.361-.804-.842-.804zm10.611 10.436h-1.834l-3.261-8.448-1.668 4.297h1.819c.405 0 .721.307.721.702 0 .409-.301.702-.721.702h-2.375l-1.067 2.762h-1.804l3.923-9.574c.225-.555.646-.862 1.172-.862s.962.322 1.173.877l3.922 9.545zm-53.172 8.414c0-.439.331-.761.782-.761v-.015h3.507v.015 1.508 3.117l-.06.029c-1.084.615-2.408.951-3.838.951-3.191 0-5.614-2.269-5.674-5.298v-.117c.03-3.074 2.468-5.313 5.764-5.313 1.099 0 2.062.19 2.784.556.467.219.677.498.677.893 0 .41-.331.746-.722.746-.226 0-.421-.058-.692-.19-.587-.264-1.325-.425-2.032-.425-2.303 0-3.943 1.551-3.973 3.747 0 2.269 1.626 3.849 3.943 3.849.813 0 1.565-.161 2.227-.468l.015-2.064h-1.927c-.451 0-.782-.337-.782-.761zm26.188-.498c-.016-3.044-2.348-5.342-5.434-5.342-3.07 0-5.388 2.298-5.403 5.357.015 3.03 2.348 5.313 5.403 5.313 3.025 0 5.343-2.225 5.418-5.196l.016-.132zm-1.837 0c-.015 2.444-1.821 3.718-3.597 3.718-2.318 0-3.582-1.917-3.597-3.718v-.029c.03-2.444 1.836-3.732 3.597-3.732 1.776.014 3.582 1.302 3.597 3.761zm-12.793.834c.512-.22.963-.542 1.279-.907.452-.556.692-1.244.692-1.976 0-1.932-1.505-3.235-3.748-3.235h-2.423c-.497 0-.888.38-.888.849v9.66h1.791v-3.996h1.55l3.025 3.996h2.182l-3.462-4.391zm.15-2.796c0 .995-.662 1.61-1.821 1.683h-1.641v-3.425h1.46c1.249.015 2.002.659 2.002 1.742zm23.449-2.517c0-.468.406-.834.903-.834.482 0 .857.366.843.834v5.372c0 2.634-1.776 4.405-4.41 4.405-2.649 0-4.44-1.771-4.44-4.42v-5.342c0-.483.406-.864.903-.864a.85.85 0 0 1 .858.864v5.328c0 1.8 1.008 2.869 2.679 2.869 1.64 0 2.664-1.083 2.664-2.854v-5.357zm7.525-.717l-2.393-.015a.85.85 0 0 0-.858.864v9.602h1.761v-3.586h1.49c2.212 0 3.763-1.405 3.763-3.44 0-1.976-1.58-3.425-3.763-3.425zm1.956 3.425c0 1.171-.812 1.888-2.106 1.888h-1.34v-3.747h1.355c1.279 0 2.091.732 2.091 1.859z" fill="#0d0d0d"/></g><defs><clipPath id="A"><path fill="#fff" transform="translate(34 26)" d="M0 0h129v27H0z"/></clipPath></defs></svg>